; NON-PLATED HOLES START AT T1
; THROUGH (PLATED) HOLES START AT T100
M48
INCH
T100C0.031497
T101C0.051181
T102C0.039370
T103C0.035000
T104C0.040000
T105C0.118110
T106C0.036111
%
T100
X020012Y029519
X018012Y029519
X018012Y028535
X020012Y028535
T101
X008736Y012535
X008736Y007751
X004012Y007751
X004012Y012535
X006374Y013342
T102
X024012Y027519
X024012Y030519
X026012Y030519
X026012Y027519
T103
X013012Y027535
X022012Y024535
X024012Y021519
X024012Y025519
X017012Y027535
X022012Y028535
T104
X013012Y029519
X012012Y006535
X016012Y010535
X024012Y003535
X028012Y003535
X032012Y003535
X011012Y003535
X015012Y006535
X020012Y003535
X027012Y011535
X033012Y011535
X004012Y003535
X015012Y010535
X013012Y010535
X021012Y011535
X026012Y003535
X012012Y010535
X013012Y006535
X030012Y003535
X016012Y006535
X011012Y029519
X035012Y011535
X006012Y027519
X023012Y011535
X015012Y003535
X029012Y011535
X031012Y011535
X025012Y011535
X022012Y003535
X014012Y010535
X012012Y029519
X011012Y006535
X034012Y003535
X017012Y003535
X011012Y010535
X013012Y003535
X008012Y003535
X006012Y003535
X014012Y006535
X004012Y027519
T105
X001012Y001519
X038012Y030519
X038012Y001519
X001012Y030519
T106
X028012Y023519
X037012Y026519
X037012Y023519
X037012Y021519
X037012Y020519
X037012Y025519
X028012Y026519
X028012Y020519
X028012Y021519
X028012Y024519
X037012Y027519
X037012Y022519
X028012Y022519
X028012Y025519
X028012Y027519
X037012Y024519
T00
M30
