<?xml version='1.0' encoding='UTF-8' standalone='no'?>
<!-- Created with Fritzing (http://www.fritzing.org/) -->
<svg xmlns="http://www.w3.org/2000/svg" baseProfile="tiny"  viewBox="0 0 283.465 226.772" y="0in" height="3.14961in" width="3.93701in" x="0in" xmlns:svg="http://www.w3.org/2000/svg" version="1.2">
 <g partID="57661">
  <g id="silkscreen">
   <rect fill="none" stroke="black" height="226.196" y="0.288" width="282.889" stroke-width="0.576" x="0.288"/>
  </g>
 </g>
 <g partID="57660">
  <g id="board">
   <rect fill="none" fill-opacity="0.5" id="boardoutline" stroke="black" height="226.196" y="0.288" width="282.889" stroke-width="0.5" x="0.288"/>
  </g>
 </g>
 <g partID="87291">
  <g transform="translate(270.372,99.6305)">
   <g transform="matrix(-1,0,0,-1,0,0)">
    <g id="silkscreen">
     <g transform="matrix(1, 0, 0, 1, 0.2835, 0)">
      <g class="centered">
       <g class="esp-placeholder">
        <rect fill="none" stroke="black" y="0" height="68.0309" stroke-dasharray="2,2" width="45.354" stroke-width="0.2" x="13.323"/>
       </g>
       <g transform="matrix(1, 0, 0, 1, 13.323, 0)">
        <g class="ESP8266">
         <g fill="black" class="antenna">
          <polygon points="43.301,15.289,42.081,15.289,42.081,3.269,36.961,3.269,36.961,10.969,28.617,10.969,28.617,3.269,23.357,3.269,23.357,10.969,15.077,10.969,15.077,3.269,9.96099,3.269,9.96099,15.286,8.74099,15.286,8.74099,3.269,3.697,3.269,3.697,15.289,2.049,15.289,2.049,2.049,16.297,2.049,16.297,9.74899,22.137,9.74899,22.137,2.049,29.837,2.049,29.837,9.74899,35.741,9.74899,35.741,2.049,43.301,2.049"/>
         </g>
         <g fill="black" class="cover">
          <rect fill="none" stroke="black" y="21.26" height="43.1999" class="main" stroke-dasharray="2,2" width="34.2" stroke-width="0.2" x="5.57499"/>
         </g>
         <text fill="black" text-anchor="middle" y="43.9999" class="label" font-family="'Droid Sans'" x="22.5" font-size="4">ESP-8266</text>
        </g>
       </g>
      </g>
     </g>
     <g class="PCB">
      <path fill="black" class="board-outline" d="M59.7899,0.575999c6.72799,0,12.201,5.48099,12.201,12.217l0,82.1529c0,0.784999,-0.636999,1.423,-1.42,1.423l-23.033,0.003c-0.015,-0.00599999,-0.039,-0.028,-0.046,-0.028c-0.000999999,0,-0.002,0,-0.002,0.000999999l0,-2.299c0,-0.745999,-0.674999,-1.376,-1.474,-1.376L22.759,92.6699c-0.675999,0,-1.375,0.514999,-1.375,1.376l0.003,2.274c-0.00599999,0.017,-0.035,0.0449999,-0.026,0.0489999L7.78599,96.3689c-0.756999,0,-1.446,-0.631999,-1.622,-1.477L6.16399,77.7569c0,-0.435999,-0.237,-0.824999,-0.633999,-1.023l-4.955,-2.276L0.574999,12.793c0,-6.73599,5.47299,-12.217,12.201,-12.217L59.7899,0.575999M59.7899,0L12.776,0C5.78899,0,-0.000999999,5.69699,-0.000999999,12.793l0,61.6649c0,0.2,0.0999999,0.4,0.299,0.499999l4.991,2.299c0.2,0.0999999,0.299,0.3,0.299,0.499999l0,17.19c0.201,1.099,1.1,1.998,2.198,1.998l13.575,0c0.299,0,0.598999,-0.3,0.598999,-0.599999l0,-2.299c0,-0.499999,0.399,-0.799999,0.798999,-0.799999l23.257,0c0.499,0,0.897999,0.4,0.897999,0.799999l0,2.299c0,0.3,0.299,0.599999,0.598999,0.599999l23.058,0c1.098,0,1.996,-0.898999,1.996,-1.999L72.5669,12.793C72.5669,5.69699,66.8769,0,59.7899,0L59.7899,0z"/>
     </g>
     <g transform="matrix(1, 0, 0, 1, 0.2835, 0)">
      <g class="centered">
       <g fill="none" stroke="black" class="labels1" stroke-width="0.4" stroke-linecap="round">
        <g transform="matrix(1, 0, 0, 1, 0, 17)">
         <g class="left-labels">
          <g>
           <path class="RST" d="M50.997,4.72999L50.997,2.47M50.997,2.47l1.098,0M52.0949,2.47l0.387,0.387M52.4819,2.857l0,0.774999M52.4819,3.632l-0.387,0.323M52.0949,3.955l-1.098,0M51.7069,3.955l0.774999,0.774999M54.7429,2.857L54.3549,2.47M54.3549,2.47l-0.709999,0M53.6449,2.47l-0.388,0.387M53.2569,2.857l0,0.388M53.2569,3.245l0.388,0.387M53.6449,3.632l0.709999,0M54.3549,3.632l0.388,0.323M54.7429,3.955l0,0.388M54.7429,4.34299L54.3549,4.72999M54.3549,4.72999l-0.709999,0M53.6449,4.72999l-0.388,-0.387M56.2929,4.72999L56.2929,2.47M55.5179,2.47l1.485,0"/>
           <path class="A0" d="M44.927,4.69799L44.927,3.212M44.927,3.212l0.709999,-0.709999M45.637,2.502l0.774999,0.709999M46.412,3.212l0,1.486M44.927,3.6l1.485,0M47.188,4.37499l0,-1.55M47.188,2.825l0.387,-0.323M47.575,2.502l0.709999,0M48.285,2.502l0.388,0.323M48.673,2.825l0,1.55M48.673,4.37499l-0.388,0.323M48.285,4.69799l-0.709999,0M47.575,4.69799l-0.387,-0.323M47.188,4.37499l1.485,-1.55"/>
           <path class="D0" d="M37.727,2.47l0,2.26M37.727,4.72999l1.098,0M38.825,4.72999l0.387,-0.387M39.212,4.34299L39.212,2.857M39.212,2.857L38.825,2.47M38.825,2.47l-1.098,0M39.987,4.34299L39.987,2.857M39.987,2.857l0.388,-0.387M40.375,2.47l0.709999,0M41.085,2.47l0.388,0.387M41.473,2.857l0,1.486M41.473,4.34299L41.085,4.72999M41.085,4.72999l-0.709999,0M40.375,4.72999l-0.388,-0.387M39.987,4.34299l1.486,-1.486"/>
           <path class="D5" d="M30.527,2.47l0,2.26M30.527,4.72999l1.098,0M31.625,4.72999l0.388,-0.387M32.013,4.34299L32.013,2.857M32.013,2.857L31.625,2.47M31.625,2.47l-1.098,0M34.273,2.47l-1.485,0M32.788,2.47l0,1.098M32.788,3.568l0.774999,-0.388M33.563,3.18l0.322,0M33.885,3.18l0.388,0.388M34.273,3.568l0,0.774999M34.273,4.34299L33.885,4.72999M33.885,4.72999l-0.709999,0M33.175,4.72999l-0.387,-0.387"/>
           <path class="D6" d="M23.327,2.47l0,2.26M23.327,4.72999l1.098,0M24.425,4.72999l0.387,-0.387M24.812,4.34299L24.812,2.857M24.812,2.857L24.425,2.47M24.425,2.47l-1.098,0M27.073,2.47l-0.709999,0.387M26.363,2.857l-0.774999,0.774999M25.588,3.632l0,0.710999M25.588,4.34299l0.387,0.387M25.975,4.72999l0.709999,0M26.685,4.72999l0.388,-0.387M27.073,4.34299L27.073,3.955M27.073,3.955l-0.388,-0.323M26.685,3.632l-1.097,0"/>
           <path class="D7" d="M16.127,2.47l0,2.26M16.127,4.72999l1.098,0M17.225,4.72999l0.387,-0.387M17.612,4.34299L17.612,2.857M17.612,2.857L17.225,2.47M17.225,2.47l-1.098,0M18.388,2.47l1.485,0M19.873,2.47l0,0.387M19.873,2.857l-1.485,1.486M18.388,4.34299L18.388,4.72999"/>
           <path class="D8" d="M8.92699,2.47l0,2.26M8.92699,4.72999l1.098,0M10.025,4.72999l0.387,-0.387M10.412,4.34299L10.412,2.857M10.412,2.857L10.025,2.47M10.025,2.47L8.92699,2.47M11.188,2.857l0.387,-0.387M11.575,2.47l0.709999,0M12.285,2.47l0.388,0.387M12.673,2.857l0,0.388M12.673,3.245l-0.388,0.387M12.285,3.632l0.388,0.388M12.673,4.02l0,0.323M12.673,4.34299L12.285,4.72999M12.285,4.72999l-0.709999,0M11.575,4.72999l-0.387,-0.387M11.188,4.34299L11.188,4.02M11.188,4.02l0.387,-0.388M11.575,3.632l-0.387,-0.387M11.188,3.245L11.188,2.857M11.575,3.632l0.709999,0"/>
           <path class="3V3" d="M0.596999,2.857L0.983999,2.47M0.983999,2.47l0.710999,0M1.695,2.47l0.387,0.387M2.082,2.857L2.082,3.18M2.082,3.18L1.695,3.568M1.695,3.568L1.307,3.568M1.695,3.568l0.387,0.387M2.082,3.955l0,0.388M2.082,4.34299L1.695,4.72999M1.695,4.72999L0.983999,4.72999M0.983999,4.72999L0.596999,4.34299M2.857,2.47l0,1.485M2.857,3.955L3.632,4.72999M3.632,4.72999l0.710999,-0.774999M4.343,3.955L4.343,2.47M5.118,2.857L5.50499,2.47M5.50499,2.47L6.27999,2.47M6.27999,2.47l0.323,0.387M6.60299,2.857L6.60299,3.18M6.60299,3.18L6.27999,3.568M6.27999,3.568L5.89299,3.568M6.27999,3.568l0.323,0.387M6.60299,3.955l0,0.388M6.60299,4.34299L6.27999,4.72999M6.27999,4.72999L5.50499,4.72999M5.50499,4.72999L5.118,4.34299"/>
          </g>
         </g>
        </g>
        <g transform="matrix(1, 0, 0, 1, 50.4, 17)">
         <g class="right-labels">
          <g>
           <path class="5V" d="M3.212,2.47L1.727,2.47M1.727,2.47l0,1.098M1.727,3.568l0.709999,-0.388M2.437,3.18l0.388,0M2.825,3.18l0.387,0.388M3.212,3.568l0,0.774999M3.212,4.34299L2.825,4.72999M2.825,4.72999l-0.709999,0M2.115,4.72999L1.727,4.34299M3.988,2.47l0,1.485M3.988,3.955L4.763,4.72999M4.763,4.72999l0.709999,-0.774999M5.47299,3.955L5.47299,2.47"/>
           <path class="G" d="M11.543,2.857L11.155,2.47M11.155,2.47l-0.709999,0M10.445,2.47l-0.388,0.387M10.057,2.857l0,1.486M10.057,4.34299l0.388,0.387M10.445,4.72999l0.709999,0M11.155,4.72999l0.388,-0.387M11.543,4.34299L11.543,3.568M11.543,3.568l-0.774999,0"/>
           <path class="D4" d="M16.127,2.47l0,2.26M16.127,4.72999l1.098,0M17.225,4.72999l0.387,-0.387M17.612,4.34299L17.612,2.857M17.612,2.857L17.225,2.47M17.225,2.47l-1.098,0M19.485,4.72999L19.485,2.47M19.485,2.47l-1.097,1.162M18.388,3.632l1.485,0"/>
           <path class="D3" d="M23.327,2.47l0,2.26M23.327,4.72999l1.098,0M24.425,4.72999l0.387,-0.387M24.812,4.34299L24.812,2.857M24.812,2.857L24.425,2.47M24.425,2.47l-1.098,0M25.588,2.857l0.387,-0.387M25.975,2.47l0.709999,0M26.685,2.47l0.388,0.387M27.073,2.857L27.073,3.18M27.073,3.18l-0.388,0.388M26.685,3.568l-0.322,0M26.685,3.568l0.388,0.387M27.073,3.955l0,0.388M27.073,4.34299L26.685,4.72999M26.685,4.72999l-0.709999,0M25.975,4.72999l-0.387,-0.387"/>
           <path class="D2" d="M30.527,2.47l0,2.26M30.527,4.72999l1.098,0M31.625,4.72999l0.388,-0.387M32.013,4.34299L32.013,2.857M32.013,2.857L31.625,2.47M31.625,2.47l-1.098,0M34.273,4.72999l-1.485,0M32.788,4.72999l1.485,-1.485M34.273,3.245L34.273,2.857M34.273,2.857L33.885,2.47M33.885,2.47l-0.709999,0M33.175,2.47l-0.387,0.387"/>
           <path class="D1" d="M37.727,2.502l0,2.196M37.727,4.69799l1.098,0M38.825,4.69799l0.387,-0.323M39.212,4.37499l0,-1.55M39.212,2.825l-0.387,-0.323M38.825,2.502l-1.098,0M39.987,3.212l0.775999,-0.709999M40.763,2.502l0,2.196M39.987,4.69799l1.486,0"/>
           <path class="RX" d="M44.927,4.72999L44.927,2.47M44.927,2.47l1.098,0M46.025,2.47l0.387,0.387M46.412,2.857l0,0.774999M46.412,3.632l-0.387,0.323M46.025,3.955l-1.098,0M45.637,3.955l0.774999,0.774999M47.188,2.47l1.485,2.26M48.673,2.47l-1.485,2.26"/>
           <path class="TX" d="M52.8369,4.69799L52.8369,2.502M52.1269,2.502l1.485,0M54.3879,2.502l1.485,2.196M55.8729,2.502l-1.485,2.196"/>
          </g>
         </g>
        </g>
       </g>
      </g>
     </g>
     <g fill="none" stroke="black" class="labels2" stroke-linecap="round">
      <g transform="matrix(1, 0, 0, 1, 11, 82.9999)">
       <g class="label-reset" stroke-width="0.4">
        <path d="M0,2.26L0,0M0,0l1.098,0M1.098,0l0.387,0.388M1.485,0.388l0,0.774999M1.485,1.163L1.098,1.55M1.098,1.55L0,1.55M0.709999,1.55l0.774999,0.709999M3.746,0L2.26,0M2.26,0l0,2.26M2.26,2.26l1.486,0M2.26,1.163l0.774999,0M6.07099,0.388L5.68299,0M5.68299,0L4.908,0M4.908,0L4.521,0.388M4.521,0.388l0,0.387M4.521,0.774999l0.387,0.388M4.908,1.163l0.774999,0M5.68299,1.163L6.07099,1.55M6.07099,1.55l0,0.323M6.07099,1.873L5.68299,2.26M5.68299,2.26L4.908,2.26M4.908,2.26L4.521,1.873M8.33099,0L6.84599,0M6.84599,0l0,2.26M6.84599,2.26l1.485,0M6.84599,1.163l0.709999,0M9.88099,2.26L9.88099,0M9.10599,0l1.486,0"/>
       </g>
      </g>
      <g transform="matrix(1, 0, 0, 1, 47, 79.9999)">
       <g class="label-logo" stroke-width="0.5">
        <path class="label-logo-d1" d="M4.5,0.999999l0,4.22399M4.5,5.22399l2.052,0M6.55199,5.22399L7.27599,4.49999M7.27599,4.49999L7.27599,1.724M7.27599,1.724L6.55199,0.999999M6.55199,0.999999L4.5,0.999999M8.72399,2.448L10.172,0.999999M10.172,0.999999l0,4.22399M8.72399,5.22399L11.5,5.22399"/>
        <path class="label-logo-mini" d="M12.8,4.59999L12.8,2.53M12.8,2.53l0.539999,0M13.34,2.53l0.45,0.539999M13.79,3.07L13.79,4.59999M13.79,3.07l0.539999,-0.539999M14.33,2.53l0.539999,0.539999M14.87,3.07L14.87,4.59999M15.95,2.53l0.539999,0M16.49,2.53L16.49,4.59999M15.95,4.59999l1.08,0M16.49,0.999999l0,0.539999M18.11,4.59999L18.11,2.53M18.11,2.53l1.53,0M19.64,2.53l0.539999,0.539999M20.18,3.07L20.18,4.59999M21.26,2.53l0.539999,0M21.8,2.53L21.8,4.59999M21.26,4.59999l0.989999,0M21.8,0.999999l0,0.539999"/>
        <path class="label-logo-wemos_cc" d="M7.17499,10.619l-0.759999,0M6.41499,10.619L5.99999,10.205M5.99999,10.205l0,-0.829999M5.99999,9.37499l0.415,-0.346M6.41499,9.02899l0.759999,0M7.17499,9.02899L7.58999,9.37499M7.58999,9.37499L7.58999,9.78999M7.58999,9.78999L5.99999,9.78999M8.51899,10.619L8.51899,8.19999M8.51899,8.19999l0.828999,0.828999M9.34799,9.02899L10.109,8.19999M10.109,8.19999l0,2.419M11.453,10.619l0.828999,0M12.282,10.619l0.346,-0.413999M12.628,10.205l0,-0.829999M12.628,9.37499l-0.346,-0.346M12.282,9.02899l-0.828999,0M11.453,9.02899l-0.415,0.346M11.038,9.37499l0,0.829999M11.038,10.205l0.415,0.413999M13.626,10.619l1.175,0M14.801,10.619l0.415,-0.413999M15.216,10.205L14.801,9.78999M14.801,9.78999l-0.828999,0M13.972,9.78999l-0.346,-0.414999M13.626,9.37499l0.346,-0.346M13.972,9.02899l1.244,0M16.145,10.619l0,-0.413999M16.145,10.205l0.415,0M16.56,10.205l0,0.413999M16.56,10.619l-0.415,0M19.079,9.02899l-1.244,0M17.835,9.02899L17.42,9.37499M17.42,9.37499l0,0.829999M17.42,10.205l0.415,0.413999M17.835,10.619l1.244,0M21.598,9.02899l-1.244,0M20.354,9.02899l-0.346,0.346M20.008,9.37499l0,0.829999M20.008,10.205l0.346,0.413999M20.354,10.619l1.244,0M4.15,6.99999c2.5,3.5,-0.5,5.19999,-1.2,3.2c-0.599999,2,-3.8,0.599999,-1.8,-3.2"/>
       </g>
      </g>
     </g>
    </g>
   </g>
  </g>
 </g>
 <g partID="119501">
  <g transform="translate(169.793,74.5305)">
   <g transform="matrix(0,-1,1,0,0,0)">
    <g id="silkscreen">
     <line y2="3.096" stroke="black" x2="10.584" stroke-width="0.72" y1="3.096" x1="5.4"/>
     <line y2="3.096" stroke="black" x2="28.8" stroke-width="0.72" y1="3.096" x1="24.984"/>
     <line y2="0.72" stroke="black" x2="24.984" stroke-width="0.72" y1="0.72" x1="10.584"/>
     <line y2="5.472" stroke="black" x2="24.984" stroke-width="0.72" y1="0.72" x1="24.984"/>
     <line y2="5.472" stroke="black" x2="10.584" stroke-width="0.72" y1="5.472" x1="24.984"/>
     <line y2="0.72" stroke="black" x2="10.584" stroke-width="0.72" y1="5.472" x1="10.584"/>
    </g>
   </g>
  </g>
 </g>
 <g partID="107241">
  <g transform="translate(161.585,18.6177)">
   <g transform="matrix(0,1,-1,0,0,0)">
    <g id="silkscreen">
     <line y2="3.096" stroke="black" x2="10.584" stroke-width="0.72" y1="3.096" x1="5.4"/>
     <line y2="3.096" stroke="black" x2="28.8" stroke-width="0.72" y1="3.096" x1="24.984"/>
     <line y2="0.72" stroke="black" x2="24.984" stroke-width="0.72" y1="0.72" x1="10.584"/>
     <line y2="5.472" stroke="black" x2="24.984" stroke-width="0.72" y1="0.72" x1="24.984"/>
     <line y2="5.472" stroke="black" x2="10.584" stroke-width="0.72" y1="5.472" x1="24.984"/>
     <line y2="0.72" stroke="black" x2="10.584" stroke-width="0.72" y1="5.472" x1="10.584"/>
    </g>
   </g>
  </g>
 </g>
 <g partID="97351">
  <g transform="translate(125.189,31.6137)">
   <g transform="matrix(-1,0,0,-1,0,0)">
    <g id="silkscreen">
     <line y2="3.096" stroke="black" x2="10.584" stroke-width="0.72" y1="3.096" x1="5.4"/>
     <line y2="3.096" stroke="black" x2="28.8" stroke-width="0.72" y1="3.096" x1="24.984"/>
     <line y2="0.72" stroke="black" x2="24.984" stroke-width="0.72" y1="0.72" x1="10.584"/>
     <line y2="5.472" stroke="black" x2="24.984" stroke-width="0.72" y1="0.72" x1="24.984"/>
     <line y2="5.472" stroke="black" x2="10.584" stroke-width="0.72" y1="5.472" x1="24.984"/>
     <line y2="0.72" stroke="black" x2="10.584" stroke-width="0.72" y1="5.472" x1="10.584"/>
    </g>
   </g>
  </g>
 </g>
 <g partID="121381">
  <g transform="translate(69.2826,123.478)">
   <g transform="matrix(0,1,-1,0,0,0)">
    <g transform="matrix(1, 0, 0, 1, 0, -795.118)">
     <g id="silkscreen">
      <g>
       <g transform="matrix(1, 0, 0, 1, 0, 795.118)">
        <g id="0.3.0.0">
         <path fill="none" stroke-opacity="1" stroke="black" id="path3761" d="m0,46.7717,63.7795,0,0,-46.7717,-63.7795,0z" stroke-width="0.79937" style="stroke-linecap:butt;stroke-linejoin:miter;stroke-miterlimit:4;stroke-dasharray:none"/>
        </g>
       </g>
      </g>
     </g>
    </g>
   </g>
  </g>
 </g>
 <g partID="71921">
  <g transform="translate(20.9689,32.9505)">
   <g transform="matrix(0,-1,1,0,0,0)">
    <g id="silkscreen">
     <line fill="none" y2="29.939" id="vertical-left" stroke="black" x2="0.36" stroke-width="0.75" y1="0.36" x1="0.36"/>
     <line fill="none" y2="29.939" id="bottom" stroke="black" x2="28.86" stroke-width="0.75" y1="29.939" x1="0.36"/>
     <line fill="none" y2="0.36" id="vertical-right" stroke="black" x2="28.86" stroke-width="0.75" y1="29.939" x1="28.86"/>
     <line fill="none" y2="0.36" id="top" stroke="black" x2="0.36" stroke-width="0.75" y1="0.36" x1="28.86"/>
     <line fill="none" y2="0.36" id="mid-vertical" stroke="black" x2="18.605" stroke-width="0.75" y1="29.939" x1="18.605"/>
    </g>
   </g>
  </g>
 </g>
 <g partID="123331">
  <g transform="translate(65.6089,196.998)">
   <g transform="matrix(0,1,-1,0,0,0)">
    <g id="silkscreen">
     <line fill="none" y2="44.28" id="vertical-left" stroke="black" x2="0.36" stroke-width="0.72" y1="0.36" x1="0.36"/>
     <line fill="none" y2="0.36" id="vertical-right" stroke="black" x2="28.86" stroke-width="0.72" y1="44.28" x1="28.86"/>
     <line fill="none" y2="0.36" id="top" stroke="black" x2="0.36" stroke-width="0.72" y1="0.36" x1="28.86"/>
     <line fill="none" y2="0.36" id="mid-vertical" stroke="black" x2="18.605" stroke-width="0.36" y1="44.28" x1="18.605"/>
     <line fill="none" y2="44.28" id="bottom" stroke="black" x2="28.86" stroke-width="0.72" y1="44.28" x1="0.36"/>
    </g>
   </g>
  </g>
 </g>
 <g partID="854113781">
  <g transform="translate(152.876,24.8641)">
   <g transform="matrix(-1,0,0,-1,0,0)">
    <g id="silkscreen">
     <path fill="none" stroke-linejoin="round" id="path2820_2_" stroke="black" d="M6.0272,11.6048c-0.196,-0.1136,-0.388,-0.24,-0.5736,-0.3808c-2.4368,-1.84,-2.92,-5.3088,-1.0792,-7.7456C4.688,3.064,5.0576,2.696,5.4728,2.384" stroke-width="0.36864" stroke-linecap="round"/>
     <path fill="none" stroke-linejoin="round" id="path2820_1_" stroke="black" d="M12.12,2.3992c2.436,1.8392,2.9192,5.308,1.08,7.7456c-0.4424,0.5856,-0.9792,1.0584,-1.5728,1.4136" stroke-width="0.36864" stroke-linecap="round"/>
     <path fill="none" id="path3707_2_" stroke="black" d="M6.3872,2.3864L5.4696,2.3864" stroke-width="0.36864" stroke-linecap="round"/>
     <path fill="none" id="path3707_1_" stroke="black" d="M12.1048,2.3864l-0.9168,0" stroke-width="0.36864" stroke-linecap="round"/>
    </g>
   </g>
  </g>
 </g>
 <g partID="854113801">
  <g transform="translate(138.476,24.8641)">
   <g transform="matrix(-1,0,0,-1,0,0)">
    <g id="silkscreen">
     <path fill="none" stroke-linejoin="round" id="path2820_2_" stroke="black" d="M6.0272,11.6048c-0.196,-0.1136,-0.388,-0.24,-0.5736,-0.3808c-2.4368,-1.84,-2.92,-5.3088,-1.0792,-7.7456C4.688,3.064,5.0576,2.696,5.4728,2.384" stroke-width="0.36864" stroke-linecap="round"/>
     <path fill="none" stroke-linejoin="round" id="path2820_1_" stroke="black" d="M12.12,2.3992c2.436,1.8392,2.9192,5.308,1.08,7.7456c-0.4424,0.5856,-0.9792,1.0584,-1.5728,1.4136" stroke-width="0.36864" stroke-linecap="round"/>
     <path fill="none" id="path3707_2_" stroke="black" d="M6.3872,2.3864L5.4696,2.3864" stroke-width="0.36864" stroke-linecap="round"/>
     <path fill="none" id="path3707_1_" stroke="black" d="M12.1048,2.3864l-0.9168,0" stroke-width="0.36864" stroke-linecap="round"/>
    </g>
   </g>
  </g>
 </g>
 <g partID="57661">
  <g id="silkscreen">
   <rect fill="none" stroke="black" height="226.196" y="0.288" width="282.889" stroke-width="0.576" x="0.288"/>
  </g>
 </g>
 <g partID="99691">
  <g transform="translate(69.7174,20.6839)">
   <g transform="matrix(0,-1,1,0,0,0)">
    <g id="silkscreen">
     <line y2="0.288" x2="0.288" stroke="black" class="other" stroke-width="0.576001" stroke-linecap="round" y1="0.288" x1="12.6187"/>
     <line y2="33.2549" x2="0.288" stroke="black" class="other" stroke-width="0.576001" stroke-linecap="round" y1="0.288" x1="0.288"/>
     <line y2="33.2549" x2="12.6187" stroke="black" class="other" stroke-width="0.576001" stroke-linecap="round" y1="33.2549" x1="0.288"/>
     <line y2="0.288" x2="12.6187" stroke="black" class="other" stroke-width="0.576001" stroke-linecap="round" y1="33.2549" x1="12.6187"/>
    </g>
   </g>
  </g>
 </g>
 <g partID="76851">
  <g transform="translate(118.889,183.318)">
   <g transform="matrix(-1,0,0,-1,0,0)">
    <g id="silkscreen" stroke-width="0">
     <path fill="none" stroke="black" d="M0.288,35.712L42.912,35.712L42.912,0.288L0.288,0.288L0.288,35.712" stroke-width="0.576"/>
     <line y2="25.2" stroke="black" x2="14.4" stroke-linecap="round" stroke-width="0.576" y1="36" x1="14.4"/>
     <line y2="10.8" stroke="black" x2="14.4" stroke-linecap="round" stroke-width="0.576" y1="0" x1="14.4"/>
     <line y2="10.8" stroke="black" x2="28.8" stroke-linecap="round" stroke-width="0.576" y1="0" x1="28.8"/>
     <line y2="25.2" stroke="black" x2="28.8" stroke-linecap="round" stroke-width="0.576" y1="36" x1="28.8"/>
     <line y2="18" stroke="black" x2="7.2" stroke-linecap="round" stroke-width="0.576" y1="18" x1="0"/>
     <line y2="18" stroke="black" x2="25.2" stroke-linecap="round" stroke-width="0.864" y1="18" x1="18"/>
     <line y2="18" stroke="black" x2="43.2" stroke-linecap="round" stroke-width="0.576" y1="18" x1="36"/>
     <g stroke-width="0">
      <title>element:JP1</title>
      <g stroke-width="0">
       <title>package:1X06</title>
      </g>
     </g>
     <g stroke-width="0">
      <title>element:JP2</title>
      <g stroke-width="0">
       <title>package:1X06</title>
      </g>
     </g>
    </g>
   </g>
  </g>
 </g>
 <g partID="854150781">
  <g transform="translate(130.409,196.998)">
   <g transform="matrix(0,1,-1,0,0,0)">
    <g id="silkscreen">
     <line fill="none" y2="58.68" id="vertical-left" stroke="black" x2="0.36" stroke-width="0.75" y1="0.36" x1="0.36"/>
     <line fill="none" y2="58.68" id="bottom" stroke="black" x2="28.86" stroke-width="0.75" y1="58.68" x1="0.36"/>
     <line fill="none" y2="0.36" id="vertical-right" stroke="black" x2="28.86" stroke-width="0.75" y1="58.68" x1="28.86"/>
     <line fill="none" y2="0.36" id="top" stroke="black" x2="0.36" stroke-width="0.75" y1="0.36" x1="28.86"/>
     <line fill="none" y2="0.36" id="mid-vertical" stroke="black" x2="18.605" stroke-width="0.75" y1="58.68" x1="18.605"/>
    </g>
   </g>
  </g>
 </g>
 <g partID="854153911">
  <g transform="translate(260.009,139.398)">
   <g transform="matrix(0,1,-1,0,0,0)">
    <g id="silkscreen">
     <line fill="none" y2="116.28" id="vertical-left" stroke="black" x2="0.36" stroke-width="0.75" y1="0.36" x1="0.36"/>
     <line fill="none" y2="116.28" id="bottom" stroke="black" x2="28.86" stroke-width="0.75" y1="116.28" x1="0.36"/>
     <line fill="none" y2="0.36" id="vertical-right" stroke="black" x2="28.86" stroke-width="0.75" y1="116.28" x1="28.86"/>
     <line fill="none" y2="0.36" id="top" stroke="black" x2="0.36" stroke-width="0.75" y1="0.36" x1="28.86"/>
     <line fill="none" y2="0.36" id="mid-vertical" stroke="black" x2="18.605" stroke-width="0.75" y1="116.28" x1="18.605"/>
    </g>
   </g>
  </g>
 </g>
 <g partID="854162941">
  <g transform="translate(169.109,32.4105)">
   <g transform="matrix(0,-1,1,0,0,0)">
    <g id="silkscreen">
     <line y2="14.58" x2="14.58" stroke="black" class="other" stroke-width="0.36" stroke-linecap="round" y1="7.38" x1="14.58"/>
     <line y2="10.98" x2="18.18" stroke="black" class="other" stroke-width="0.36" stroke-linecap="round" y1="10.98" x1="10.98"/>
     <line y2="0.18" x2="28.98" stroke="black" class="other" stroke-width="0.36" stroke-linecap="round" y1="0.18" x1="0.18"/>
     <line y2="21.78" x2="28.98" stroke="black" class="other" stroke-width="0.36" stroke-linecap="round" y1="0.18" x1="28.98"/>
     <line y2="21.78" x2="0.18" stroke="black" class="other" stroke-width="0.36" stroke-linecap="round" y1="21.78" x1="28.98"/>
     <line y2="0.18" x2="0.18" stroke="black" class="other" stroke-width="0.36" stroke-linecap="round" y1="21.78" x1="0.18"/>
    </g>
   </g>
  </g>
 </g>
 <g partID="854176041">
  <g transform="translate(252.809,196.998)">
   <g transform="matrix(0,1,-1,0,0,0)">
    <g id="silkscreen">
     <line fill="none" y2="116.28" id="vertical-left" stroke="black" x2="0.36" stroke-width="0.75" y1="0.36" x1="0.36"/>
     <line fill="none" y2="116.28" id="bottom" stroke="black" x2="28.86" stroke-width="0.75" y1="116.28" x1="0.36"/>
     <line fill="none" y2="0.36" id="vertical-right" stroke="black" x2="28.86" stroke-width="0.75" y1="116.28" x1="28.86"/>
     <line fill="none" y2="0.36" id="top" stroke="black" x2="0.36" stroke-width="0.75" y1="0.36" x1="28.86"/>
     <line fill="none" y2="0.36" id="mid-vertical" stroke="black" x2="18.605" stroke-width="0.75" y1="116.28" x1="18.605"/>
    </g>
   </g>
  </g>
 </g>
 <g partID="854201200">
  <g transform="translate(14.2149,217.237)">
   <g id="silkscreen">
    <text fill="black" text-anchor="middle" xmlns:xml="http://www.w3.org/XML/1998/namespace" id="label" y="5.91469" stroke-width="0" xml:space="preserve" x="29.5735" font-family="OCRA" font-size="6.57188">|_  \  _|</text>
   </g>
  </g>
 </g>
 <g partID="854201150">
  <g transform="translate(118.462,216.894)">
   <g id="silkscreen">
    <text fill="black" text-anchor="middle" xmlns:xml="http://www.w3.org/XML/1998/namespace" id="label" y="5.91469" stroke-width="0" xml:space="preserve" x="75.5766" font-family="OCRA" font-size="6.57188">5v G  D4 D3 D2 D1 RX TX</text>
   </g>
  </g>
 </g>
 <g partID="854201120">
  <g transform="translate(123.164,159.433)">
   <g id="silkscreen">
    <text fill="black" text-anchor="middle" xmlns:xml="http://www.w3.org/XML/1998/namespace" id="label" y="5.91469" stroke-width="0" xml:space="preserve" x="78.8627" font-family="OCRA" font-size="6.57189">3v D8 D7 D6 D5 D0 A0 RST</text>
   </g>
  </g>
 </g>
 <g partID="854201220">
  <g transform="translate(61.3001,217.581)">
   <g id="silkscreen">
    <text fill="black" text-anchor="middle" xmlns:xml="http://www.w3.org/XML/1998/namespace" id="label" y="4.72501" stroke-width="0" xml:space="preserve" x="39.375" font-family="OCRA" font-size="5.25">TX1 RX1 TX0 RX0</text>
   </g>
  </g>
 </g>
 <g partID="854242160">
  <g transform="translate(50.5809,12.8719)">
   <g transform="matrix(-1,0,0,-1,0,0)">
    <g id="silkscreen">
     <text fill="black" text-anchor="middle" xmlns:xml="http://www.w3.org/XML/1998/namespace" id="label" y="6.48" stroke-width="0" xml:space="preserve" x="14.4" font-family="OCRA" font-size="7.2">G 5v</text>
    </g>
   </g>
  </g>
 </g>
 <g id="partLabel" partID="97350">
  <g transform="translate(101.926,33.1204)">
   <g transform="matrix(1,0,0,1,0,0)">
    <g fill="#000000" fill-opacity="1" font-style="normal" font-weight="normal" id="silkscreenLabel" stroke="none" font-family="'OCRA'" font-size="5">
     <text y="3.75" x="0">220&#x3a9;</text>
    </g>
   </g>
  </g>
 </g>
 <g id="partLabel" partID="107240">
  <g transform="translate(162.185,33.8955)">
   <g fill="#000000" fill-opacity="1" font-style="normal" font-weight="normal" id="silkscreenLabel" stroke="none" font-family="'OCRA'" font-size="5">
    <text y="3.75" x="0">100&#x3a9;</text>
   </g>
  </g>
 </g>
 <g id="partLabel" partID="71920">
  <g transform="translate(21.2596,34.7056)">
   <g fill="#000000" fill-opacity="1" font-style="normal" font-weight="normal" id="silkscreenLabel" stroke="none" font-family="'OCRA'" font-size="5">
    <text y="3.75" x="0">5v Power</text>
   </g>
  </g>
 </g>
 <g id="partLabel" partID="121380">
  <g transform="translate(28.5674,150.67)">
   <g fill="#000000" fill-opacity="1" font-style="normal" font-weight="normal" id="silkscreenLabel" stroke="none" font-family="'OCRA'" font-size="5">
    <text y="3.75" x="0">3.3v Relay</text>
   </g>
  </g>
 </g>
 <g id="partLabel" partID="123330">
  <g transform="translate(28.6032,189.151)">
   <g fill="#000000" fill-opacity="1" font-style="normal" font-weight="normal" id="silkscreenLabel" stroke="none" font-family="'OCRA'" font-size="5">
    <text y="3.75" x="0">Relay Out</text>
   </g>
  </g>
 </g>
 <g id="partLabel" partID="119500">
  <g transform="translate(176.567,55.5225)">
   <g transform="matrix(1,0,0,1,0,0)">
    <g fill="#000000" fill-opacity="1" font-style="normal" font-weight="normal" id="silkscreenLabel" stroke="none" font-family="'OCRA'" font-size="5">
     <text y="3.75" x="0">10k&#x3a9;</text>
    </g>
   </g>
  </g>
 </g>
 <g id="partLabel" partID="854113780">
  <g transform="translate(130.608,29.155)">
   <g fill="#000000" fill-opacity="1" font-style="normal" font-weight="normal" id="silkscreenLabel" stroke="none" font-family="'OCRA'" font-size="5">
    <text y="3.75" x="0">Status</text>
   </g>
  </g>
 </g>
 <g id="partLabel" partID="854113800">
  <g transform="translate(120.602,3.76026)">
   <g fill="#000000" fill-opacity="1" font-style="normal" font-weight="normal" id="silkscreenLabel" stroke="none" font-family="'OCRA'" font-size="5">
    <text y="3.75" x="0">Power</text>
   </g>
  </g>
 </g>
 <g id="partLabel" partID="76850">
  <g transform="translate(80.9219,159.816)">
   <g fill="#000000" fill-opacity="1" font-style="normal" font-weight="normal" id="silkscreenLabel" stroke="none" font-family="'OCRA'" font-size="5">
    <text y="3.75" x="0">3v &lt;-> 5v</text>
   </g>
  </g>
 </g>
 <g id="partLabel" partID="854150780">
  <g transform="translate(87.5326,188.473)">
   <g fill="#000000" fill-opacity="1" font-style="normal" font-weight="normal" id="silkscreenLabel" stroke="none" font-family="'OCRA'" font-size="5">
    <text y="3.75" x="0">5v Logic</text>
   </g>
  </g>
 </g>
 <g id="partLabel" partID="854162940">
  <g transform="translate(172.036,12.5672)">
   <g fill="#000000" fill-opacity="1" font-style="normal" font-weight="normal" id="silkscreenLabel" stroke="none" font-family="'OCRA'" font-size="5">
    <text y="3.75" x="0">Input</text>
   </g>
  </g>
 </g>
 <g partID="87292">
  <g transform="translate(270.372,99.6305)">
   <g transform="matrix(-1,0,0,-1,0,0)">
    <g id="copper1">
     <g id="copper0">
      <g transform="matrix(1, 0, 0, 1, 0.2835, 0)">
       <g class="centered">
        <g class="pads">
         <g transform="matrix(1, 0, 0, 1, 0, 17)">
          <g class="pads-left">
           <circle fill="white" cy="3.6" r="2.05" id="connector0pad" stroke="white" class="pad-rst" stroke-width="2.22" cx="3.6"/>
           <circle fill="white" cy="10.8" r="2.05" id="connector1pad" stroke="white" class="pad-a0" stroke-width="2.22" cx="3.6"/>
           <circle fill="white" cy="18" r="2.05" id="connector2pad" stroke="white" class="pad-d0" stroke-width="2.22" cx="3.6"/>
           <circle fill="white" cy="25.2" r="2.05" id="connector3pad" stroke="white" class="pad-d5" stroke-width="2.22" cx="3.6"/>
           <circle fill="white" cy="32.4" r="2.05" id="connector4pad" stroke="white" class="pad-d6" stroke-width="2.22" cx="3.6"/>
           <circle fill="white" cy="39.6" r="2.05" id="connector5pad" stroke="white" class="pad-d7" stroke-width="2.22" cx="3.6"/>
           <circle fill="white" cy="46.7999" r="2.05" id="connector6pad" stroke="white" class="pad-d8" stroke-width="2.22" cx="3.6"/>
           <circle fill="white" cy="53.9999" r="2.05" id="connector7pad" stroke="white" class="pad-3v3" stroke-width="2.22" cx="3.6"/>
          </g>
         </g>
         <g transform="matrix(1, 0, 0, 1, 64.7999, 17)">
          <g class="pads-right">
           <circle fill="white" cy="53.9999" r="2.05" id="connector8pad" stroke="white" class="pad-5v" stroke-width="2.22" cx="3.6"/>
           <circle fill="white" cy="46.7999" r="2.05" id="connector9pad" stroke="white" class="pad-g" stroke-width="2.22" cx="3.6"/>
           <circle fill="white" cy="39.6" r="2.05" id="connector10pad" stroke="white" class="pad-d4" stroke-width="2.22" cx="3.6"/>
           <circle fill="white" cy="32.4" r="2.05" id="connector11pad" stroke="white" class="pad-d3" stroke-width="2.22" cx="3.6"/>
           <circle fill="white" cy="25.2" r="2.05" id="connector12pad" stroke="white" class="pad-d2" stroke-width="2.22" cx="3.6"/>
           <circle fill="white" cy="18" r="2.05" id="connector13pad" stroke="white" class="pad-d1" stroke-width="2.22" cx="3.6"/>
           <circle fill="white" cy="10.8" r="2.05" id="connector14pad" stroke="white" class="pad-rx" stroke-width="2.22" cx="3.6"/>
           <circle fill="white" cy="3.6" r="2.05" id="connector15pad" stroke="white" class="pad-tx" stroke-width="2.22" cx="3.6"/>
          </g>
         </g>
        </g>
       </g>
      </g>
     </g>
    </g>
   </g>
  </g>
 </g>
 <g partID="119502">
  <g transform="translate(169.793,74.5305)">
   <g transform="matrix(0,-1,1,0,0,0)">
    <g id="copper1">
     <!-- <rect width="55" x="10" y="15.5" fill="none" height="55" stroke="rgb(255, 191, 0)" stroke-width="20" />  -->
     <circle fill="white" cy="3.096" r="1.98" stroke="white" id="connector0pin" stroke-width="2.16" cx="2.7"/>
     <circle fill="white" cy="3.096" r="1.98" stroke="white" id="connector1pin" stroke-width="2.16" cx="31.5"/>
    </g>
   </g>
  </g>
 </g>
 <g partID="107242">
  <g transform="translate(161.585,18.6177)">
   <g transform="matrix(0,1,-1,0,0,0)">
    <g id="copper1">
     <!-- <rect width="55" x="10" y="15.5" fill="none" height="55" stroke="rgb(255, 191, 0)" stroke-width="20" />  -->
     <circle fill="white" cy="3.096" r="1.98" stroke="white" id="connector0pin" stroke-width="2.16" cx="2.7"/>
     <circle fill="white" cy="3.096" r="1.98" stroke="white" id="connector1pin" stroke-width="2.16" cx="31.5"/>
    </g>
   </g>
  </g>
 </g>
 <g partID="97352">
  <g transform="translate(125.189,31.6137)">
   <g transform="matrix(-1,0,0,-1,0,0)">
    <g id="copper1">
     <!-- <rect width="55" x="10" y="15.5" fill="none" height="55" stroke="rgb(255, 191, 0)" stroke-width="20" />  -->
     <circle fill="white" cy="3.096" r="1.98" stroke="white" id="connector0pin" stroke-width="2.16" cx="2.7"/>
     <circle fill="white" cy="3.096" r="1.98" stroke="white" id="connector1pin" stroke-width="2.16" cx="31.5"/>
    </g>
   </g>
  </g>
 </g>
 <g partID="121382">
  <g transform="translate(69.2826,123.478)">
   <g transform="matrix(0,1,-1,0,0,0)">
    <g transform="matrix(1, 0, 0, 1, 0, -795.118)">
     <g id="copper1">
      <g>
       <g transform="matrix(1, 0, 0, 1, 0, 795.118)">
        <g id="0.3.1.0">
         <path fill="white" stroke-opacity="1" stroke="white" id="connector2pin" d="m10.4882,23.3858a3.25984,3.25984,0,1,1,-6.51969,0,3.25984,3.25984,0,1,1,6.51969,0z" stroke-width="3.55465" style="opacity:0.98000004;stroke-miterlimit:4;stroke-dasharray:none"/>
        </g>
       </g>
       <g transform="matrix(1, 0, 0, 1, 5.81102, 812.126)">
        <g id="0.3.1.1">
         <path fill="white" stroke-opacity="1" stroke="white" id="path3782-7" d="m10.4882,23.3858a3.25984,3.25984,0,1,1,-6.51969,0,3.25984,3.25984,0,1,1,6.51969,0z" stroke-width="3.55465" style="opacity:0.98000004;stroke-miterlimit:4;stroke-dasharray:none"/>
        </g>
       </g>
       <g transform="matrix(1, 0, 0, 1, 40.252, 812.126)">
        <g id="0.3.1.2">
         <path fill="white" stroke-opacity="1" stroke="white" id="path3782-7-5" d="m10.4882,23.3858a3.25984,3.25984,0,1,1,-6.51969,0,3.25984,3.25984,0,1,1,6.51969,0z" stroke-width="3.55465" style="opacity:0.98000004;stroke-miterlimit:4;stroke-dasharray:none"/>
        </g>
       </g>
       <g transform="matrix(1, 0, 0, 1, 5.81102, 812.126)">
        <g id="0.3.1.3">
         <path fill="white" stroke-opacity="1" stroke="white" id="connector1pin" d="m10.4882,23.3858a3.25984,3.25984,0,1,1,-6.51969,0,3.25984,3.25984,0,1,1,6.51969,0z" stroke-width="3.55465" style="opacity:0.98000004;stroke-miterlimit:4;stroke-dasharray:none"/>
        </g>
       </g>
       <g transform="matrix(1, 0, 0, 1, 40.252, 812.126)">
        <g id="0.3.1.4">
         <path fill="white" stroke-opacity="1" stroke="white" id="connector0pin" d="m10.4882,23.3858a3.25984,3.25984,0,1,1,-6.51969,0,3.25984,3.25984,0,1,1,6.51969,0z" stroke-width="3.55465" style="opacity:0.98000004;stroke-miterlimit:4;stroke-dasharray:none"/>
        </g>
       </g>
       <g transform="matrix(1, 0, 0, -1, 5.81102, 824.882)">
        <g id="0.3.1.5">
         <path fill="white" stroke-opacity="1" stroke="white" id="connector4pin" d="m10.4882,23.3858a3.25984,3.25984,0,1,1,-6.51969,0,3.25984,3.25984,0,1,1,6.51969,0z" stroke-width="3.55465" style="opacity:0.98000004;stroke-miterlimit:4;stroke-dasharray:none"/>
        </g>
       </g>
       <g transform="matrix(1, 0, 0, -1, 40.252, 824.882)">
        <g id="0.3.1.6">
         <path fill="white" stroke-opacity="1" stroke="white" id="connector5pin" d="m10.4882,23.3858a3.25984,3.25984,0,1,1,-6.51969,0,3.25984,3.25984,0,1,1,6.51969,0z" stroke-width="3.55465" style="opacity:0.98000004;stroke-miterlimit:4;stroke-dasharray:none"/>
        </g>
       </g>
      </g>
     </g>
    </g>
   </g>
  </g>
 </g>
 <g partID="71922">
  <g transform="translate(20.9689,32.9505)">
   <g transform="matrix(0,-1,1,0,0,0)">
    <g id="copper1">
     <g id="connector0pin">
      <rect fill="white" id="square" stroke="white" y="5.76" height="4.32" width="4.319" stroke-width="2.16" x="2.16"/>
      <circle fill="white" cy="7.92" r="2.16" stroke="white" stroke-width="2.16" cx="4.32"/>
     </g>
     <circle fill="white" cy="22.32" r="2.16" id="connector1pin" stroke="white" stroke-width="2.16" cx="4.32"/>
    </g>
   </g>
  </g>
 </g>
 <g partID="123332">
  <g transform="translate(65.6089,196.998)">
   <g transform="matrix(0,1,-1,0,0,0)">
    <g id="copper1">
     <circle fill="white" cy="22.32" r="2.16" id="connector1pin" stroke="white" stroke-width="2.16" cx="4.32"/>
     <circle fill="white" cy="36.72" r="2.16" id="connector2pin" stroke="white" stroke-width="2.16" cx="4.32"/>
     <g id="connector0pin">
      <rect fill="white" id="square" stroke="white" y="5.76" height="4.32" width="4.32" stroke-width="2.16" x="2.16"/>
      <circle fill="white" cy="7.92" r="2.16" stroke="white" stroke-width="2.16" cx="4.32"/>
     </g>
    </g>
   </g>
  </g>
 </g>
 <g partID="854113782">
  <g transform="translate(152.876,24.8641)">
   <g transform="matrix(-1,0,0,-1,0,0)">
    <g id="copper1">
     <circle fill="white" cy="10.6336" r="1.7008" id="connector1pad" stroke="white" stroke-width="1.85384" cx="8.7872"/>
     <rect fill="white" stroke="white" y="8.9328" height="3.4016" width="3.4016" stroke-width="1.85384" x="7.0864"/>
     <circle fill="white" cy="3.5464" r="1.7008" id="connector0pad" stroke="white" stroke-width="1.85384" cx="8.7872"/>
    </g>
   </g>
  </g>
 </g>
 <g partID="854113802">
  <g transform="translate(138.476,24.8641)">
   <g transform="matrix(-1,0,0,-1,0,0)">
    <g id="copper1">
     <circle fill="white" cy="10.6336" r="1.7008" id="connector1pad" stroke="white" stroke-width="1.85384" cx="8.7872"/>
     <rect fill="white" stroke="white" y="8.9328" height="3.4016" width="3.4016" stroke-width="1.85384" x="7.0864"/>
     <circle fill="white" cy="3.5464" r="1.7008" id="connector0pad" stroke="white" stroke-width="1.85384" cx="8.7872"/>
    </g>
   </g>
  </g>
 </g>
 <g partID="99692">
  <g transform="translate(69.7174,20.6839)">
   <g transform="matrix(0,-1,1,0,0,0)">
    <g id="copper1">
     <circle fill="white" cy="9.57146" r="2.052" id="connector0pad" stroke="white" connectorname="1" stroke-width="1.944" cx="6.45336"/>
     <circle fill="white" cy="16.7715" r="2.052" id="connector1pad" stroke="white" connectorname="2" stroke-width="1.944" cx="6.45336"/>
     <circle fill="white" cy="23.9715" r="2.052" id="connector2pad" stroke="white" connectorname="3" stroke-width="1.944" cx="6.45336"/>
     <g id="copper0">
      <circle fill="white" cy="9.57146" r="2.052" id="connector0pad" stroke="white" connectorname="1" stroke-width="1.944" cx="6.45336"/>
      <circle fill="white" cy="16.7715" r="2.052" id="connector1pad" stroke="white" connectorname="2" stroke-width="1.944" cx="6.45336"/>
      <circle fill="white" cy="23.9715" r="2.052" id="connector2pad" stroke="white" connectorname="3" stroke-width="1.944" cx="6.45336"/>
     </g>
    </g>
   </g>
  </g>
 </g>
 <g partID="76852">
  <g transform="translate(118.889,183.318)">
   <g transform="matrix(-1,0,0,-1,0,0)">
    <g id="copper1" stroke-width="0">
     <g id="copper0" stroke-width="0">
      <circle fill="white" cy="32.4" r="1.872" stroke="white" id="connector1pad" connectorname="RX2_LV" stroke-width="1.584" cx="32.4"/>
      <circle fill="white" cy="32.4" r="1.872" stroke="white" id="connector2pad" connectorname="GND" stroke-width="1.584" cx="25.2"/>
      <circle fill="white" cy="32.4" r="1.872" stroke="white" id="connector3pad" connectorname="LV" stroke-width="1.584" cx="18"/>
      <circle fill="white" cy="32.4" r="1.872" stroke="white" id="connector4pad" connectorname="RX_LV" stroke-width="1.584" cx="10.8"/>
      <circle fill="white" cy="32.4" r="1.872" stroke="white" id="connector5pad" connectorname="TX_LV" stroke-width="1.584" cx="3.6"/>
      <circle fill="white" cy="3.6" r="1.872" stroke="white" id="connector6pad" connectorname="TX_HV" stroke-width="1.584" cx="3.6"/>
      <circle fill="white" cy="3.6" r="1.872" stroke="white" id="connector7pad" connectorname="RX_HV" stroke-width="1.584" cx="10.8"/>
      <circle fill="white" cy="3.6" r="1.872" stroke="white" id="connector8pad" connectorname="HV" stroke-width="1.584" cx="18"/>
      <circle fill="white" cy="3.6" r="1.872" stroke="white" id="connector9pad" connectorname="GND" stroke-width="1.584" cx="25.2"/>
      <circle fill="white" cy="3.6" r="1.872" stroke="white" id="connector10pad" connectorname="RX2_HV" stroke-width="1.584" cx="32.4"/>
      <circle fill="white" cy="3.6" r="1.872" stroke="white" id="connector11pad" connectorname="TX2_HV" stroke-width="1.584" cx="39.6"/>
      <circle fill="white" cy="32.4" r="1.872" stroke="white" id="connector0pad" connectorname="TX2_LV" stroke-width="1.584" cx="39.6"/>
     </g>
    </g>
   </g>
  </g>
 </g>
 <g partID="854150782">
  <g transform="translate(130.409,196.998)">
   <g transform="matrix(0,1,-1,0,0,0)">
    <g id="copper1">
     <circle fill="white" cy="22.32" r="2.16" id="connector1pin" stroke="white" stroke-width="2.16" cx="4.32"/>
     <circle fill="white" cy="36.72" r="2.16" id="connector2pin" stroke="white" stroke-width="2.16" cx="4.32"/>
     <circle fill="white" cy="51.12" r="2.16" id="connector3pin" stroke="white" stroke-width="2.16" cx="4.32"/>
     <g id="connector0pin">
      <rect fill="white" id="square" stroke="white" y="5.76" height="4.32" width="4.32" stroke-width="2.16" x="2.16"/>
      <circle fill="white" cy="7.92" r="2.16" stroke="white" stroke-width="2.16" cx="4.32"/>
     </g>
    </g>
   </g>
  </g>
 </g>
 <g partID="854153912">
  <g transform="translate(260.009,139.398)">
   <g transform="matrix(0,1,-1,0,0,0)">
    <g id="copper1">
     <g id="connector0pin">
      <rect fill="white" id="square" stroke="white" y="5.76" height="4.32" width="4.32" stroke-width="2.16" x="2.16"/>
      <circle fill="white" cy="7.92" r="2.16" stroke="white" stroke-width="2.16" cx="4.32"/>
     </g>
     <circle fill="white" cy="36.72" r="2.16" id="connector2pin" stroke="white" stroke-width="2.16" cx="4.32"/>
     <circle fill="white" cy="22.32" r="2.16" id="connector1pin" stroke="white" stroke-width="2.16" cx="4.32"/>
     <circle fill="white" cy="51.12" r="2.16" id="connector3pin" stroke="white" stroke-width="2.16" cx="4.32"/>
     <circle fill="white" cy="65.52" r="2.16" id="connector4pin" stroke="white" stroke-width="2.16" cx="4.32"/>
     <circle fill="white" cy="79.92" r="2.16" id="connector5pin" stroke="white" stroke-width="2.16" cx="4.32"/>
     <circle fill="white" cy="94.32" r="2.16" id="connector6pin" stroke="white" stroke-width="2.16" cx="4.32"/>
     <circle fill="white" cy="108.72" r="2.16" id="connector7pin" stroke="white" stroke-width="2.16" cx="4.32"/>
    </g>
   </g>
  </g>
 </g>
 <g partID="854162942">
  <g transform="translate(169.109,32.4105)">
   <g transform="matrix(0,-1,1,0,0,0)">
    <g id="copper1">
     <circle fill="white" cy="3.78" r="1.77732" id="connector0pad" stroke="white" connectorname="P$1" stroke-width="1.44" cx="3.78"/>
     <path fill="white" stroke="white" d="m1.64268,1.64268,4.27465,0,0,4.27465,-4.27465,0,0,-4.27465zM2.36268,3.78a1.41732,1.41732,0,1,0,2.83465,0,1.41732,1.41732,0,1,0,-2.83465,0z" stroke-width="0.72"/>
     <circle fill="white" cy="3.78" r="1.77732" id="connector1pad" stroke="white" connectorname="P$2" stroke-width="1.44" cx="25.38"/>
     <path fill="white" stroke="white" d="m23.2427,1.64268,4.27465,0,0,4.27465,-4.27465,0,0,-4.27465zM23.9627,3.78a1.41732,1.41732,0,1,0,2.83465,0,1.41732,1.41732,0,1,0,-2.83465,0z" stroke-width="0.72"/>
     <circle fill="white" cy="18.18" r="1.77732" id="connector2pad" stroke="white" connectorname="P$3" stroke-width="1.44" cx="3.78"/>
     <path fill="white" stroke="white" d="m1.64268,16.0427,4.27465,0,0,4.27465,-4.27465,0,0,-4.27465zM2.36268,18.18a1.41732,1.41732,0,1,0,2.83465,0,1.41732,1.41732,0,1,0,-2.83465,0z" stroke-width="0.72"/>
     <circle fill="white" cy="18.18" r="1.77732" id="connector3pad" stroke="white" connectorname="P$4" stroke-width="1.44" cx="25.38"/>
     <path fill="white" stroke="white" d="m23.2427,16.0427,4.27465,0,0,4.27465,-4.27465,0,0,-4.27465zM23.9627,18.18a1.41732,1.41732,0,1,0,2.83465,0,1.41732,1.41732,0,1,0,-2.83465,0z" stroke-width="0.72"/>
     <g id="copper0">
      <circle fill="white" cy="3.78" r="1.77732" id="connector0pad" stroke="white" connectorname="P$1" stroke-width="1.44" cx="3.78"/>
      <path fill="white" stroke="white" d="m1.64268,1.64268,4.27465,0,0,4.27465,-4.27465,0,0,-4.27465zM2.36268,3.78a1.41732,1.41732,0,1,0,2.83465,0,1.41732,1.41732,0,1,0,-2.83465,0z" stroke-width="0.72"/>
      <circle fill="white" cy="3.78" r="1.77732" id="connector1pad" stroke="white" connectorname="P$2" stroke-width="1.44" cx="25.38"/>
      <path fill="white" stroke="white" d="m23.2427,1.64268,4.27465,0,0,4.27465,-4.27465,0,0,-4.27465zM23.9627,3.78a1.41732,1.41732,0,1,0,2.83465,0,1.41732,1.41732,0,1,0,-2.83465,0z" stroke-width="0.72"/>
      <circle fill="white" cy="18.18" r="1.77732" id="connector2pad" stroke="white" connectorname="P$3" stroke-width="1.44" cx="3.78"/>
      <path fill="white" stroke="white" d="m1.64268,16.0427,4.27465,0,0,4.27465,-4.27465,0,0,-4.27465zM2.36268,18.18a1.41732,1.41732,0,1,0,2.83465,0,1.41732,1.41732,0,1,0,-2.83465,0z" stroke-width="0.72"/>
      <circle fill="white" cy="18.18" r="1.77732" id="connector3pad" stroke="white" connectorname="P$4" stroke-width="1.44" cx="25.38"/>
      <path fill="white" stroke="white" d="m23.2427,16.0427,4.27465,0,0,4.27465,-4.27465,0,0,-4.27465zM23.9627,18.18a1.41732,1.41732,0,1,0,2.83465,0,1.41732,1.41732,0,1,0,-2.83465,0z" stroke-width="0.72"/>
     </g>
    </g>
   </g>
  </g>
 </g>
 <g partID="854176042">
  <g transform="translate(252.809,196.998)">
   <g transform="matrix(0,1,-1,0,0,0)">
    <g id="copper1">
     <g id="connector0pin">
      <rect fill="white" id="square" stroke="white" y="5.76" height="4.32" width="4.32" stroke-width="2.16" x="2.16"/>
      <circle fill="white" cy="7.92" r="2.16" stroke="white" stroke-width="2.16" cx="4.32"/>
     </g>
     <circle fill="white" cy="36.72" r="2.16" id="connector2pin" stroke="white" stroke-width="2.16" cx="4.32"/>
     <circle fill="white" cy="22.32" r="2.16" id="connector1pin" stroke="white" stroke-width="2.16" cx="4.32"/>
     <circle fill="white" cy="51.12" r="2.16" id="connector3pin" stroke="white" stroke-width="2.16" cx="4.32"/>
     <circle fill="white" cy="65.52" r="2.16" id="connector4pin" stroke="white" stroke-width="2.16" cx="4.32"/>
     <circle fill="white" cy="79.92" r="2.16" id="connector5pin" stroke="white" stroke-width="2.16" cx="4.32"/>
     <circle fill="white" cy="94.32" r="2.16" id="connector6pin" stroke="white" stroke-width="2.16" cx="4.32"/>
     <circle fill="white" cy="108.72" r="2.16" id="connector7pin" stroke="white" stroke-width="2.16" cx="4.32"/>
    </g>
   </g>
  </g>
 </g>
 <g partID="854200321">
  <g transform="translate(0.0195127,-0.238777)">
   <g id="copper1">
    <circle fill="white" cy="7.26926" r="4.96063" stroke="white" id="nonconn0" stroke-width="2.13732" cx="7.26926"/>
   </g>
  </g>
 </g>
 <g partID="854200811">
  <g transform="translate(266.42,-0.238771)">
   <g id="copper1">
    <circle fill="white" cy="7.26926" r="4.96063" stroke="white" id="nonconn0" stroke-width="2.13732" cx="7.26926"/>
   </g>
  </g>
 </g>
 <g partID="854200831">
  <g transform="translate(266.42,208.561)">
   <g id="copper1">
    <circle fill="white" cy="7.26926" r="4.96063" stroke="white" id="nonconn0" stroke-width="2.13732" cx="7.26926"/>
   </g>
  </g>
 </g>
 <g partID="854200851">
  <g transform="translate(0.0195184,208.561)">
   <g id="copper1">
    <circle fill="white" cy="7.26926" r="4.96063" stroke="white" id="nonconn0" stroke-width="2.13732" cx="7.26926"/>
   </g>
  </g>
 </g>
</svg>
