<?xml version='1.0' encoding='UTF-8' standalone='no'?>
<!-- Created with Fritzing (http://www.fritzing.org/) -->
<svg xmlns="http://www.w3.org/2000/svg" baseProfile="tiny" xmlns:svg="http://www.w3.org/2000/svg" width="3.93701in" x="0in"  version="1.2" y="0in" viewBox="0 0 283.465 226.772" height="3.14961in">
 <g transform="matrix(-1, 0, 0, 1, 283.465, 0)">
  <g partID="57660">
   <g id="board" >
    <rect id="boardoutline" stroke="black" width="282.889" x="0.288" fill-opacity="0.5"  fill="none" y="0.288" stroke-width="0.5" height="226.196"/>
   </g>
  </g>
  <g partID="854200831">
   <g transform="translate(266.419,208.561)">
    <g id="copper1" >
     <circle cx="7.26926" id="nonconn0" stroke="black" r="4.96063"  fill="none" stroke-width="1.41732" cy="7.26926"/>
    </g>
   </g>
  </g>
  <g partID="854200811">
   <g transform="translate(266.419,-0.238771)">
    <g id="copper1" >
     <circle cx="7.26926" id="nonconn0" stroke="black" r="4.96063"  fill="none" stroke-width="1.41732" cy="7.26926"/>
    </g>
   </g>
  </g>
  <g partID="87291">
   <g transform="translate(270.373,99.6305)">
    <g transform="matrix(-1,0,0,-1,0,0)">
     <g id="copper1">
      <g id="copper0">
       <g transform="matrix(1, 0, 0, 1, 0.2835, 0)">
        <g class="centered">
         <g class="pads">
          <g transform="matrix(1, 0, 0, 1, 0, 17)">
           <g class="pads-left">
            <circle cx="3.6" id="connector0pad" class="pad-rst" stroke="black" r="2.05" fill="none" stroke-width="1.5" cy="3.6"/>
            <circle cx="3.6" id="connector1pad" class="pad-a0" stroke="black" r="2.05" fill="none" stroke-width="1.5" cy="10.8"/>
            <circle cx="3.6" id="connector2pad" class="pad-d0" stroke="black" r="2.05" fill="none" stroke-width="1.5" cy="18"/>
            <circle cx="3.6" id="connector3pad" class="pad-d5" stroke="black" r="2.05" fill="none" stroke-width="1.5" cy="25.2"/>
            <circle cx="3.6" id="connector4pad" class="pad-d6" stroke="black" r="2.05" fill="none" stroke-width="1.5" cy="32.4"/>
            <circle cx="3.6" id="connector5pad" class="pad-d7" stroke="black" r="2.05" fill="none" stroke-width="1.5" cy="39.6"/>
            <circle cx="3.6" id="connector6pad" class="pad-d8" stroke="black" r="2.05" fill="none" stroke-width="1.5" cy="46.7999"/>
            <circle cx="3.6" id="connector7pad" class="pad-3v3" stroke="black" r="2.05" fill="none" stroke-width="1.5" cy="53.9999"/>
           </g>
          </g>
          <g transform="matrix(1, 0, 0, 1, 64.7999, 17)">
           <g class="pads-right">
            <circle cx="3.6" id="connector8pad" class="pad-5v" stroke="black" r="2.05" fill="none" stroke-width="1.5" cy="53.9999"/>
            <circle cx="3.6" id="connector9pad" class="pad-g" stroke="black" r="2.05" fill="none" stroke-width="1.5" cy="46.7999"/>
            <circle cx="3.6" id="connector10pad" class="pad-d4" stroke="black" r="2.05" fill="none" stroke-width="1.5" cy="39.6"/>
            <circle cx="3.6" id="connector11pad" class="pad-d3" stroke="black" r="2.05" fill="none" stroke-width="1.5" cy="32.4"/>
            <circle cx="3.6" id="connector12pad" class="pad-d2" stroke="black" r="2.05" fill="none" stroke-width="1.5" cy="25.2"/>
            <circle cx="3.6" id="connector13pad" class="pad-d1" stroke="black" r="2.05" fill="none" stroke-width="1.5" cy="18"/>
            <circle cx="3.6" id="connector14pad" class="pad-rx" stroke="black" r="2.05" fill="none" stroke-width="1.5" cy="10.8"/>
            <circle cx="3.6" id="connector15pad" class="pad-tx" stroke="black" r="2.05" fill="none" stroke-width="1.5" cy="3.6"/>
           </g>
          </g>
         </g>
        </g>
       </g>
      </g>
     </g>
    </g>
   </g>
  </g>
  <g partID="854200851">
   <g transform="translate(0.0195184,208.561)">
    <g id="copper1" >
     <circle cx="7.26926" id="nonconn0" stroke="black" r="4.96063"  fill="none" stroke-width="1.41732" cy="7.26926"/>
    </g>
   </g>
  </g>
  <g partID="119501">
   <g transform="translate(169.793,74.5305)">
    <g transform="matrix(0,-1,1,0,0,0)">
     <g id="copper1" >
      <!-- <rect width="55" x="10" y="15.5" fill="none" height="55" stroke="rgb(255, 191, 0)" stroke-width="20" />  -->
      <circle cx="2.7" id="connector0pin" stroke="black" r="1.98"  fill="none" stroke-width="1.44" cy="3.096"/>
      <circle cx="31.5" id="connector1pin" stroke="black" r="1.98"  fill="none" stroke-width="1.44" cy="3.096"/>
     </g>
    </g>
   </g>
  </g>
  <g partID="107241">
   <g transform="translate(161.585,18.6177)">
    <g transform="matrix(0,1,-1,0,0,0)">
     <g id="copper1" >
      <!-- <rect width="55" x="10" y="15.5" fill="none" height="55" stroke="rgb(255, 191, 0)" stroke-width="20" />  -->
      <circle cx="2.7" id="connector0pin" stroke="black" r="1.98"  fill="none" stroke-width="1.44" cy="3.096"/>
      <circle cx="31.5" id="connector1pin" stroke="black" r="1.98"  fill="none" stroke-width="1.44" cy="3.096"/>
     </g>
    </g>
   </g>
  </g>
  <g partID="97351">
   <g transform="translate(125.189,31.6137)">
    <g transform="matrix(-1,0,0,-1,0,0)">
     <g id="copper1" >
      <!-- <rect width="55" x="10" y="15.5" fill="none" height="55" stroke="rgb(255, 191, 0)" stroke-width="20" />  -->
      <circle cx="2.7" id="connector0pin" stroke="black" r="1.98"  fill="none" stroke-width="1.44" cy="3.096"/>
      <circle cx="31.5" id="connector1pin" stroke="black" r="1.98"  fill="none" stroke-width="1.44" cy="3.096"/>
     </g>
    </g>
   </g>
  </g>
  <g partID="854201380">
   <g transform="translate(5.22912,74.083)">
    <g id="copper1" >
     <text id="label" font-family="OCRA" font-size="30.2826" xml:space="preserve" x="105.989" xmlns:xml="http://www.w3.org/XML/1998/namespace" text-anchor="middle"  fill="black" y="27.2543" stroke-width="0">bubbles</text>
    </g>
   </g>
  </g>
  <g partID="99691">
   <g transform="translate(69.7174,20.6839)">
    <g transform="matrix(0,-1,1,0,0,0)">
     <g id="copper1" >
      <circle cx="6.45336" id="connector0pad" connectorname="1" stroke="black" r="2.052"  fill="none" stroke-width="1.224" cy="9.57146"/>
      <circle cx="6.45336" id="connector1pad" connectorname="2" stroke="black" r="2.052"  fill="none" stroke-width="1.224" cy="16.7715"/>
      <circle cx="6.45336" id="connector2pad" connectorname="3" stroke="black" r="2.052"  fill="none" stroke-width="1.224" cy="23.9715"/>
      <g id="copper0" >
       <circle cx="6.45336" id="connector0pad" connectorname="1" stroke="black" r="2.052"  fill="none" stroke-width="1.224" cy="9.57146"/>
       <circle cx="6.45336" id="connector1pad" connectorname="2" stroke="black" r="2.052"  fill="none" stroke-width="1.224" cy="16.7715"/>
       <circle cx="6.45336" id="connector2pad" connectorname="3" stroke="black" r="2.052"  fill="none" stroke-width="1.224" cy="23.9715"/>
      </g>
     </g>
    </g>
   </g>
  </g>
  <g partID="121381">
   <g transform="translate(69.2827,123.479)">
    <g transform="matrix(0,1,-1,0,0,0)">
     <g transform="matrix(1, 0, 0, 1, 0, -795.118)">
      <g id="copper1">
       <g>
        <g transform="matrix(1, 0, 0, 1, 0, 795.118)">
         <g id="0.3.1.0">
          <path id="connector2pin" stroke="black" style="opacity:0.98000004;stroke-miterlimit:4;stroke-dasharray:none" stroke-opacity="1" fill="none" stroke-width="2.83465" d="m10.4882,23.3858a3.25984,3.25984,0,1,1,-6.51969,0,3.25984,3.25984,0,1,1,6.51969,0z"/>
         </g>
        </g>
        <g transform="matrix(1, 0, 0, 1, 5.81102, 812.126)">
         <g id="0.3.1.1">
          <path id="path3782-7" stroke="black" style="opacity:0.98000004;stroke-miterlimit:4;stroke-dasharray:none" stroke-opacity="1" fill="none" stroke-width="2.83465" d="m10.4882,23.3858a3.25984,3.25984,0,1,1,-6.51969,0,3.25984,3.25984,0,1,1,6.51969,0z"/>
         </g>
        </g>
        <g transform="matrix(1, 0, 0, 1, 40.252, 812.126)">
         <g id="0.3.1.2">
          <path id="path3782-7-5" stroke="black" style="opacity:0.98000004;stroke-miterlimit:4;stroke-dasharray:none" stroke-opacity="1" fill="none" stroke-width="2.83465" d="m10.4882,23.3858a3.25984,3.25984,0,1,1,-6.51969,0,3.25984,3.25984,0,1,1,6.51969,0z"/>
         </g>
        </g>
        <g transform="matrix(1, 0, 0, 1, 5.81102, 812.126)">
         <g id="0.3.1.3">
          <path id="connector1pin" stroke="black" style="opacity:0.98000004;stroke-miterlimit:4;stroke-dasharray:none" stroke-opacity="1" fill="none" stroke-width="2.83465" d="m10.4882,23.3858a3.25984,3.25984,0,1,1,-6.51969,0,3.25984,3.25984,0,1,1,6.51969,0z"/>
         </g>
        </g>
        <g transform="matrix(1, 0, 0, 1, 40.252, 812.126)">
         <g id="0.3.1.4">
          <path id="connector0pin" stroke="black" style="opacity:0.98000004;stroke-miterlimit:4;stroke-dasharray:none" stroke-opacity="1" fill="none" stroke-width="2.83465" d="m10.4882,23.3858a3.25984,3.25984,0,1,1,-6.51969,0,3.25984,3.25984,0,1,1,6.51969,0z"/>
         </g>
        </g>
        <g transform="matrix(1, 0, 0, -1, 5.81102, 824.882)">
         <g id="0.3.1.5">
          <path id="connector4pin" stroke="black" style="opacity:0.98000004;stroke-miterlimit:4;stroke-dasharray:none" stroke-opacity="1" fill="none" stroke-width="2.83465" d="m10.4882,23.3858a3.25984,3.25984,0,1,1,-6.51969,0,3.25984,3.25984,0,1,1,6.51969,0z"/>
         </g>
        </g>
        <g transform="matrix(1, 0, 0, -1, 40.252, 824.882)">
         <g id="0.3.1.6">
          <path id="connector5pin" stroke="black" style="opacity:0.98000004;stroke-miterlimit:4;stroke-dasharray:none" stroke-opacity="1" fill="none" stroke-width="2.83465" d="m10.4882,23.3858a3.25984,3.25984,0,1,1,-6.51969,0,3.25984,3.25984,0,1,1,6.51969,0z"/>
         </g>
        </g>
       </g>
      </g>
     </g>
    </g>
   </g>
  </g>
  <g partID="71921">
   <g transform="translate(20.9689,32.9505)">
    <g transform="matrix(0,-1,1,0,0,0)">
     <g id="copper1" >
      <g id="connector0pin" >
       <rect id="square" stroke="black" width="4.319" x="2.16"  y="5.76" fill="none" stroke-width="1.44" height="4.32"/>
       <circle cx="4.32" stroke="black" r="2.16"  fill="none" stroke-width="1.44" cy="7.92"/>
      </g>
      <circle cx="4.32" id="connector1pin" stroke="black" r="2.16"  fill="none" stroke-width="1.44" cy="22.32"/>
     </g>
    </g>
   </g>
  </g>
  <g partID="76851">
   <g transform="translate(118.889,183.318)">
    <g transform="matrix(-1,0,0,-1,0,0)">
     <g id="copper1"  stroke-width="0">
      <g id="copper0"  stroke-width="0">
       <circle cx="32.4" connectorname="RX2_LV" id="connector1pad" stroke="black" r="1.872"  fill="none" stroke-width="0.864" cy="32.4"/>
       <circle cx="25.2" connectorname="GND" id="connector2pad" stroke="black" r="1.872"  fill="none" stroke-width="0.864" cy="32.4"/>
       <circle cx="18" connectorname="LV" id="connector3pad" stroke="black" r="1.872"  fill="none" stroke-width="0.864" cy="32.4"/>
       <circle cx="10.8" connectorname="RX_LV" id="connector4pad" stroke="black" r="1.872"  fill="none" stroke-width="0.864" cy="32.4"/>
       <circle cx="3.6" connectorname="TX_LV" id="connector5pad" stroke="black" r="1.872"  fill="none" stroke-width="0.864" cy="32.4"/>
       <circle cx="3.6" connectorname="TX_HV" id="connector6pad" stroke="black" r="1.872"  fill="none" stroke-width="0.864" cy="3.6"/>
       <circle cx="10.8" connectorname="RX_HV" id="connector7pad" stroke="black" r="1.872"  fill="none" stroke-width="0.864" cy="3.6"/>
       <circle cx="18" connectorname="HV" id="connector8pad" stroke="black" r="1.872"  fill="none" stroke-width="0.864" cy="3.6"/>
       <circle cx="25.2" connectorname="GND" id="connector9pad" stroke="black" r="1.872"  fill="none" stroke-width="0.864" cy="3.6"/>
       <circle cx="32.4" connectorname="RX2_HV" id="connector10pad" stroke="black" r="1.872"  fill="none" stroke-width="0.864" cy="3.6"/>
       <circle cx="39.6" connectorname="TX2_HV" id="connector11pad" stroke="black" r="1.872"  fill="none" stroke-width="0.864" cy="3.6"/>
       <circle cx="39.6" connectorname="TX2_LV" id="connector0pad" stroke="black" r="1.872"  fill="none" stroke-width="0.864" cy="32.4"/>
      </g>
     </g>
    </g>
   </g>
  </g>
  <g partID="123331">
   <g transform="translate(65.6089,196.998)">
    <g transform="matrix(0,1,-1,0,0,0)">
     <g id="copper1" >
      <circle cx="4.32" id="connector1pin" stroke="black" r="2.16"  fill="none" stroke-width="1.44" cy="22.32"/>
      <circle cx="4.32" id="connector2pin" stroke="black" r="2.16"  fill="none" stroke-width="1.44" cy="36.72"/>
      <g id="connector0pin" >
       <rect id="square" stroke="black" width="4.32" x="2.16"  y="5.76" fill="none" stroke-width="1.44" height="4.32"/>
       <circle cx="4.32" stroke="black" r="2.16"  fill="none" stroke-width="1.44" cy="7.92"/>
      </g>
     </g>
    </g>
   </g>
  </g>
  <g partID="854150781">
   <g transform="translate(130.409,196.998)">
    <g transform="matrix(0,1,-1,0,0,0)">
     <g id="copper1" >
      <circle cx="4.32" id="connector1pin" stroke="black" r="2.16"  fill="none" stroke-width="1.44" cy="22.32"/>
      <circle cx="4.32" id="connector2pin" stroke="black" r="2.16"  fill="none" stroke-width="1.44" cy="36.72"/>
      <circle cx="4.32" id="connector3pin" stroke="black" r="2.16"  fill="none" stroke-width="1.44" cy="51.12"/>
      <g id="connector0pin" >
       <rect id="square" stroke="black" width="4.32" x="2.16"  y="5.76" fill="none" stroke-width="1.44" height="4.32"/>
       <circle cx="4.32" stroke="black" r="2.16"  fill="none" stroke-width="1.44" cy="7.92"/>
      </g>
     </g>
    </g>
   </g>
  </g>
  <g partID="854113781">
   <g transform="translate(152.876,24.8641)">
    <g transform="matrix(-1,0,0,-1,0,0)">
     <g id="copper1" >
      <circle cx="8.7872" id="connector1pad" stroke="black" r="1.7008"  fill="none" stroke-width="1.13384" cy="10.6336"/>
      <rect stroke="black" width="3.4016" x="7.0864"  y="8.9328" fill="none" stroke-width="1.13384" height="3.4016"/>
      <circle cx="8.7872" id="connector0pad" stroke="black" r="1.7008"  fill="none" stroke-width="1.13384" cy="3.5464"/>
     </g>
    </g>
   </g>
  </g>
  <g partID="854113801">
   <g transform="translate(138.476,24.8641)">
    <g transform="matrix(-1,0,0,-1,0,0)">
     <g id="copper1" >
      <circle cx="8.7872" id="connector1pad" stroke="black" r="1.7008"  fill="none" stroke-width="1.13384" cy="10.6336"/>
      <rect stroke="black" width="3.4016" x="7.0864"  y="8.9328" fill="none" stroke-width="1.13384" height="3.4016"/>
      <circle cx="8.7872" id="connector0pad" stroke="black" r="1.7008"  fill="none" stroke-width="1.13384" cy="3.5464"/>
     </g>
    </g>
   </g>
  </g>
  <g partID="854162941">
   <g transform="translate(169.109,32.4105)">
    <g transform="matrix(0,-1,1,0,0,0)">
     <g id="copper1" >
      <circle cx="3.78" id="connector0pad" connectorname="P$1" stroke="black" r="1.77732"  fill="none" stroke-width="0.72" cy="3.78"/>
      <path stroke="none"  fill="black" stroke-width="0" d="m1.64268,1.64268,4.27465,0,0,4.27465,-4.27465,0,0,-4.27465zM2.36268,3.78a1.41732,1.41732,0,1,0,2.83465,0,1.41732,1.41732,0,1,0,-2.83465,0z"/>
      <circle cx="25.38" id="connector1pad" connectorname="P$2" stroke="black" r="1.77732"  fill="none" stroke-width="0.72" cy="3.78"/>
      <path stroke="none"  fill="black" stroke-width="0" d="m23.2427,1.64268,4.27465,0,0,4.27465,-4.27465,0,0,-4.27465zM23.9627,3.78a1.41732,1.41732,0,1,0,2.83465,0,1.41732,1.41732,0,1,0,-2.83465,0z"/>
      <circle cx="3.78" id="connector2pad" connectorname="P$3" stroke="black" r="1.77732"  fill="none" stroke-width="0.72" cy="18.18"/>
      <path stroke="none"  fill="black" stroke-width="0" d="m1.64268,16.0427,4.27465,0,0,4.27465,-4.27465,0,0,-4.27465zM2.36268,18.18a1.41732,1.41732,0,1,0,2.83465,0,1.41732,1.41732,0,1,0,-2.83465,0z"/>
      <circle cx="25.38" id="connector3pad" connectorname="P$4" stroke="black" r="1.77732"  fill="none" stroke-width="0.72" cy="18.18"/>
      <path stroke="none"  fill="black" stroke-width="0" d="m23.2427,16.0427,4.27465,0,0,4.27465,-4.27465,0,0,-4.27465zM23.9627,18.18a1.41732,1.41732,0,1,0,2.83465,0,1.41732,1.41732,0,1,0,-2.83465,0z"/>
      <g id="copper0" >
       <circle cx="3.78" id="connector0pad" connectorname="P$1" stroke="black" r="1.77732"  fill="none" stroke-width="0.72" cy="3.78"/>
       <path stroke="none"  fill="black" stroke-width="0" d="m1.64268,1.64268,4.27465,0,0,4.27465,-4.27465,0,0,-4.27465zM2.36268,3.78a1.41732,1.41732,0,1,0,2.83465,0,1.41732,1.41732,0,1,0,-2.83465,0z"/>
       <circle cx="25.38" id="connector1pad" connectorname="P$2" stroke="black" r="1.77732"  fill="none" stroke-width="0.72" cy="3.78"/>
       <path stroke="none"  fill="black" stroke-width="0" d="m23.2427,1.64268,4.27465,0,0,4.27465,-4.27465,0,0,-4.27465zM23.9627,3.78a1.41732,1.41732,0,1,0,2.83465,0,1.41732,1.41732,0,1,0,-2.83465,0z"/>
       <circle cx="3.78" id="connector2pad" connectorname="P$3" stroke="black" r="1.77732"  fill="none" stroke-width="0.72" cy="18.18"/>
       <path stroke="none"  fill="black" stroke-width="0" d="m1.64268,16.0427,4.27465,0,0,4.27465,-4.27465,0,0,-4.27465zM2.36268,18.18a1.41732,1.41732,0,1,0,2.83465,0,1.41732,1.41732,0,1,0,-2.83465,0z"/>
       <circle cx="25.38" id="connector3pad" connectorname="P$4" stroke="black" r="1.77732"  fill="none" stroke-width="0.72" cy="18.18"/>
       <path stroke="none"  fill="black" stroke-width="0" d="m23.2427,16.0427,4.27465,0,0,4.27465,-4.27465,0,0,-4.27465zM23.9627,18.18a1.41732,1.41732,0,1,0,2.83465,0,1.41732,1.41732,0,1,0,-2.83465,0z"/>
      </g>
     </g>
    </g>
   </g>
  </g>
  <g partID="854153911">
   <g transform="translate(260.008,139.397)">
    <g transform="matrix(0,1,-1,0,0,0)">
     <g id="copper1" >
      <g id="connector0pin" >
       <rect id="square" stroke="black" width="4.32" x="2.16"  y="5.76" fill="none" stroke-width="1.44" height="4.32"/>
       <circle cx="4.32" stroke="black" r="2.16"  fill="none" stroke-width="1.44" cy="7.92"/>
      </g>
      <circle cx="4.32" id="connector2pin" stroke="black" r="2.16"  fill="none" stroke-width="1.44" cy="36.72"/>
      <circle cx="4.32" id="connector1pin" stroke="black" r="2.16"  fill="none" stroke-width="1.44" cy="22.32"/>
      <circle cx="4.32" id="connector3pin" stroke="black" r="2.16"  fill="none" stroke-width="1.44" cy="51.12"/>
      <circle cx="4.32" id="connector4pin" stroke="black" r="2.16"  fill="none" stroke-width="1.44" cy="65.52"/>
      <circle cx="4.32" id="connector5pin" stroke="black" r="2.16"  fill="none" stroke-width="1.44" cy="79.92"/>
      <circle cx="4.32" id="connector6pin" stroke="black" r="2.16"  fill="none" stroke-width="1.44" cy="94.32"/>
      <circle cx="4.32" id="connector7pin" stroke="black" r="2.16"  fill="none" stroke-width="1.44" cy="108.72"/>
     </g>
    </g>
   </g>
  </g>
  <g partID="854176041">
   <g transform="translate(252.808,196.997)">
    <g transform="matrix(0,1,-1,0,0,0)">
     <g id="copper1" >
      <g id="connector0pin" >
       <rect id="square" stroke="black" width="4.32" x="2.16"  y="5.76" fill="none" stroke-width="1.44" height="4.32"/>
       <circle cx="4.32" stroke="black" r="2.16"  fill="none" stroke-width="1.44" cy="7.92"/>
      </g>
      <circle cx="4.32" id="connector2pin" stroke="black" r="2.16"  fill="none" stroke-width="1.44" cy="36.72"/>
      <circle cx="4.32" id="connector1pin" stroke="black" r="2.16"  fill="none" stroke-width="1.44" cy="22.32"/>
      <circle cx="4.32" id="connector3pin" stroke="black" r="2.16"  fill="none" stroke-width="1.44" cy="51.12"/>
      <circle cx="4.32" id="connector4pin" stroke="black" r="2.16"  fill="none" stroke-width="1.44" cy="65.52"/>
      <circle cx="4.32" id="connector5pin" stroke="black" r="2.16"  fill="none" stroke-width="1.44" cy="79.92"/>
      <circle cx="4.32" id="connector6pin" stroke="black" r="2.16"  fill="none" stroke-width="1.44" cy="94.32"/>
      <circle cx="4.32" id="connector7pin" stroke="black" r="2.16"  fill="none" stroke-width="1.44" cy="108.72"/>
     </g>
    </g>
   </g>
  </g>
  <g partID="854200321">
   <g transform="translate(0.0195127,-0.238777)">
    <g id="copper1" >
     <circle cx="7.26926" id="nonconn0" stroke="black" r="4.96063"  fill="none" stroke-width="1.41732" cy="7.26926"/>
    </g>
   </g>
  </g>
  <g partID="854136780">
   <line stroke-linecap="round" stroke="black" y2="14.2587" x1="151.25" y1="14.3346" x2="146.023" stroke-width="1.728"/>
  </g>
  <g partID="854134320">
   <line stroke-linecap="round" stroke="black" y2="14.3346" x1="157.006" y1="19.8876" x2="151.249" stroke-width="1.728"/>
  </g>
  <g partID="854127800">
   <line stroke-linecap="round" stroke="black" y2="17.2705" x1="93.6888" y1="25.6577" x2="93.6888" stroke-width="3.456"/>
  </g>
  <g partID="854115860">
   <line stroke-linecap="round" stroke="black" y2="6.85589" x1="79.3486" y1="6.89351" x2="50.3663" stroke-width="3.456"/>
  </g>
  <g partID="854111940">
   <line stroke-linecap="round" stroke="black" y2="26.4662" x1="50.3663" y1="6.8559" x2="31.0237" stroke-width="3.456"/>
  </g>
  <g partID="854111870">
   <line stroke-linecap="round" stroke="black" y2="6.8935" x1="84.3686" y1="12.0519" x2="79.3485" stroke-width="3.456"/>
  </g>
  <g partID="854189840">
   <line stroke-linecap="round" stroke="black" y2="43.0038" x1="93.816" y1="42.857" x2="122.591" stroke-width="3.456"/>
  </g>
  <g partID="854143560">
   <line stroke-linecap="round" stroke="black" y2="24.0516" x1="129.664" y1="35.648" x2="129.684" stroke-width="3.456"/>
  </g>
  <g partID="854143470">
   <line stroke-linecap="round" stroke="black" y2="26.4582" x1="122.633" y1="21.3258" x2="122.53" stroke-width="1.728"/>
  </g>
  <g partID="854143400">
   <line stroke-linecap="round" stroke="black" y2="21.3258" x1="128.325" y1="15.6018" x2="122.633" stroke-width="1.728"/>
  </g>
  <g partID="854136360">
   <line stroke-linecap="round" stroke="black" y2="21.4386" x1="194.466" y1="21.4386" x2="172.858" stroke-width="3.456"/>
  </g>
  <g partID="854136250">
   <line stroke-linecap="round" stroke="black" y2="6.93461" x1="172.858" y1="21.4386" x2="158.354" stroke-width="3.456"/>
  </g>
  <g partID="854135930">
   <line stroke-linecap="round" stroke="black" y2="6.93455" x1="158.354" y1="6.93455" x2="122.538" stroke-width="3.456"/>
  </g>
  <g partID="854135630">
   <line stroke-linecap="round" stroke="black" y2="14.3346" x1="122.537" y1="6.93455" x2="115.433" stroke-width="3.456"/>
  </g>
  <g partID="854135520">
   <line stroke-linecap="round" stroke="black" y2="14.2451" x1="115.433" y1="14.3346" x2="96.7285" stroke-width="3.456"/>
  </g>
  <g partID="854135410">
   <line stroke-linecap="round" stroke="black" y2="21.4386" x1="199.634" y1="26.5844" x2="194.465" stroke-width="3.456"/>
  </g>
  <g partID="854190030">
   <line stroke-linecap="round" stroke="black" y2="42.857" x1="79.2293" y1="28.5807" x2="93.8159" stroke-width="3.456"/>
  </g>
  <g partID="854148740">
   <line stroke-linecap="round" stroke="black" y2="57.4326" x1="158.44" y1="71.6296" x2="144.093" stroke-width="3.456"/>
  </g>
  <g partID="854148560">
   <line stroke-linecap="round" stroke="black" y2="24.0517" x1="144.093" y1="57.4326" x2="144.089" stroke-width="3.456"/>
  </g>
  <g partID="854146140">
   <line stroke-linecap="round" stroke="black" y2="21.3177" x1="141.355" y1="21.3177" x2="132.423" stroke-width="3.456"/>
  </g>
  <g partID="854146090">
   <line stroke-linecap="round" stroke="black" y2="50.2027" x1="187.162" y1="50.0379" x2="199.589" stroke-width="1.728"/>
  </g>
  <g partID="854146040">
   <line stroke-linecap="round" stroke="black" y2="50.0379" x1="180.058" y1="57.4379" x2="187.162" stroke-width="1.728"/>
  </g>
  <g partID="854145990">
   <line stroke-linecap="round" stroke="black" y2="57.4379" x1="165.594" y1="57.4326" x2="180.057" stroke-width="1.728"/>
  </g>
  <g partID="854145950">
   <line stroke-linecap="round" stroke="black" y2="57.4326" x1="159.924" y1="51.5953" x2="165.595" stroke-width="1.728"/>
  </g>
  <g partID="854143780">
   <line stroke-linecap="round" stroke="black" y2="35.6481" x1="122.591" y1="43.0039" x2="129.664" stroke-width="3.456"/>
  </g>
  <g partID="854143570">
   <line stroke-linecap="round" stroke="black" y2="28.5807" x1="46.3289" y1="28.6263" x2="79.2294" stroke-width="3.456"/>
  </g>
  <g partID="854153380">
   <line stroke-linecap="round" stroke="black" y2="181.958" x1="115.224" y1="194.358" x2="115.279" stroke-width="1.728"/>
  </g>
  <g partID="854153330">
   <line stroke-linecap="round" stroke="black" y2="181.958" x1="86.3544" y1="194.358" x2="86.4683" stroke-width="1.728"/>
  </g>
  <g partID="854153010">
   <line stroke-linecap="round" stroke="black" y2="194.358" x1="120.871" y1="199.768" x2="115.224" stroke-width="1.728"/>
  </g>
  <g partID="854152940">
   <line stroke-linecap="round" stroke="black" y2="181.958" x1="108.089" y1="199.078" x2="108.089" stroke-width="1.728"/>
  </g>
  <g partID="854152870">
   <line stroke-linecap="round" stroke="black" y2="194.358" x1="92.064" y1="199.776" x2="86.3543" stroke-width="1.728"/>
  </g>
  <g partID="854152800">
   <line stroke-linecap="round" stroke="black" y2="181.958" x1="79.2889" y1="199.078" x2="79.2889" stroke-width="1.728"/>
  </g>
  <g partID="854148570">
   <line stroke-linecap="round" stroke="black" y2="71.6296" x1="170.029" y1="71.7908" x2="158.44" stroke-width="3.456"/>
  </g>
  <g partID="854177050">
   <line stroke-linecap="round" stroke="black" y2="78.8936" x1="259.235" y1="121.998" x2="259.408" stroke-width="1.728"/>
  </g>
  <g partID="854157440">
   <line stroke-linecap="round" stroke="black" y2="73.3135" x1="259.407" y1="78.8935" x2="265.002" stroke-width="1.728"/>
  </g>
  <g partID="854156730">
   <line stroke-linecap="round" stroke="black" y2="121.997" x1="239.266" y1="142.127" x2="259.235" stroke-width="1.728"/>
  </g>
  <g partID="854157720">
   <line stroke-linecap="round" stroke="black" y2="58.9104" x1="244.88" y1="78.8935" x2="264.999" stroke-width="1.728"/>
  </g>
  <g partID="854157580">
   <line stroke-linecap="round" stroke="black" y2="66.1112" x1="252.144" y1="78.8935" x2="265" stroke-width="1.728"/>
  </g>
  <g partID="854157510">
   <line stroke-linecap="round" stroke="black" y2="78.8934" x1="252.097" y1="114.859" x2="252.144" stroke-width="1.728"/>
  </g>
  <g partID="854157300">
   <line stroke-linecap="round" stroke="black" y2="81.1302" x1="266.374" y1="129.446" x2="266.484" stroke-width="1.728"/>
  </g>
  <g partID="854156800">
   <line stroke-linecap="round" stroke="black" y2="114.859" x1="224.871" y1="142.132" x2="252.097" stroke-width="1.728"/>
  </g>
  <g partID="854156660">
   <line stroke-linecap="round" stroke="black" y2="129.446" x1="253.673" y1="142.135" x2="266.373" stroke-width="1.728"/>
  </g>
  <g partID="854158140">
   <line stroke-linecap="round" stroke="black" y2="37.316" x1="223.451" y1="78.8935" x2="265.004" stroke-width="1.728"/>
  </g>
  <g partID="854158070">
   <line stroke-linecap="round" stroke="black" y2="78.8932" x1="223.234" y1="85.9961" x2="223.451" stroke-width="1.728"/>
  </g>
  <g partID="854158000">
   <line stroke-linecap="round" stroke="black" y2="44.5099" x1="230.352" y1="78.8935" x2="264.998" stroke-width="1.728"/>
  </g>
  <g partID="854157930">
   <line stroke-linecap="round" stroke="black" y2="78.8935" x1="230.372" y1="93.4449" x2="230.352" stroke-width="1.728"/>
  </g>
  <g partID="854157860">
   <line stroke-linecap="round" stroke="black" y2="51.71" x1="237.616" y1="78.8935" x2="264.998" stroke-width="1.728"/>
  </g>
  <g partID="854157790">
   <line stroke-linecap="round" stroke="black" y2="78.8937" x1="237.821" y1="100.583" x2="237.616" stroke-width="1.728"/>
  </g>
  <g partID="854157650">
   <line stroke-linecap="round" stroke="black" y2="78.8932" x1="244.958" y1="107.721" x2="244.88" stroke-width="1.728"/>
  </g>
  <g partID="854157010">
   <line stroke-linecap="round" stroke="black" y2="93.4448" x1="181.673" y1="142.134" x2="230.372" stroke-width="1.728"/>
  </g>
  <g partID="854156940">
   <line stroke-linecap="round" stroke="black" y2="100.583" x1="196.076" y1="142.137" x2="237.821" stroke-width="1.728"/>
  </g>
  <g partID="854156870">
   <line stroke-linecap="round" stroke="black" y2="107.721" x1="210.474" y1="142.135" x2="244.959" stroke-width="1.728"/>
  </g>
  <g partID="854178690">
   <line stroke-linecap="round" stroke="black" y2="6.85589" x1="259.235" y1="28.5807" x2="237.821" stroke-width="1.728"/>
  </g>
  <g partID="854178560">
   <line stroke-linecap="round" stroke="black" y2="35.7188" x1="252.097" y1="42.857" x2="252.097" stroke-width="3.456"/>
  </g>
  <g partID="854178430">
   <line stroke-linecap="round" stroke="black" y2="28.5807" x1="252.097" y1="35.7188" x2="259.235" stroke-width="3.456"/>
  </g>
  <g partID="854178300">
   <line stroke-linecap="round" stroke="black" y2="28.6106" x1="259.235" y1="28.5807" x2="263.589" stroke-width="3.456"/>
  </g>
  <g partID="854163590">
   <line stroke-linecap="round" stroke="black" y2="7.02288" x1="237.821" y1="6.8559" x2="189.506" stroke-width="1.728"/>
  </g>
  <g partID="854163460">
   <line stroke-linecap="round" stroke="black" y2="28.5807" x1="264.389" y1="28.6161" x2="259.235" stroke-width="1.728"/>
  </g>
  <g partID="854163390">
   <line stroke-linecap="round" stroke="black" y2="30.1984" x1="200.204" y1="41.5456" x2="188.857" stroke-width="1.728"/>
  </g>
  <g partID="854163320">
   <line stroke-linecap="round" stroke="black" y2="30.8479" x1="172.889" y1="40.9705" x2="172.889" stroke-width="1.728"/>
  </g>
  <g partID="854157150">
   <line stroke-linecap="round" stroke="black" y2="42.8569" x1="153.438" y1="141.568" x2="252.097" stroke-width="3.456"/>
  </g>
  <g partID="854157080">
   <line stroke-linecap="round" stroke="black" y2="85.9964" x1="167.27" y1="142.131" x2="223.234" stroke-width="1.728"/>
  </g>
  <g partID="854170620">
   <line stroke-linecap="round" stroke="black" y2="114.86" x1="93.816" y1="143.723" x2="72.0912" stroke-width="3.456"/>
  </g>
  <g partID="854170170">
   <line stroke-linecap="round" stroke="black" y2="133.075" x1="28.792" y1="114.856" x2="28.8735" stroke-width="3.456"/>
  </g>
  <g partID="854168600">
   <line stroke-linecap="round" stroke="black" y2="133.075" x1="28.9586" y1="43.1352" x2="28.8915" stroke-width="3.456"/>
  </g>
  <g partID="854166800">
   <line stroke-linecap="round" stroke="black" y2="114.856" x1="72.0911" y1="114.859" x2="28.7919" stroke-width="3.456"/>
  </g>
  <g partID="854164210">
   <line stroke-linecap="round" stroke="black" y2="133.129" x1="43.3087" y1="136.641" x2="44.8404" stroke-width="1.728"/>
  </g>
  <g partID="854164160">
   <line stroke-linecap="round" stroke="black" y2="136.641" x1="43.2896" y1="199.078" x2="43.3087" stroke-width="1.728"/>
  </g>
  <g partID="854164110">
   <line stroke-linecap="round" stroke="black" y2="173.601" x1="28.8889" y1="199.078" x2="28.8889" stroke-width="1.728"/>
  </g>
  <g partID="854164060">
   <line stroke-linecap="round" stroke="black" y2="173.255" x1="57.8363" y1="179.861" x2="61.5973" stroke-width="1.728"/>
  </g>
  <g partID="854164010">
   <line stroke-linecap="round" stroke="black" y2="179.861" x1="57.7043" y1="199.078" x2="57.8363" stroke-width="1.728"/>
  </g>
  <g partID="854163720">
   <line stroke-linecap="round" stroke="black" y2="43.1352" x1="41.1523" y1="30.7931" x2="28.9586" stroke-width="3.456"/>
  </g>
  <g partID="854175930">
   <line stroke-linecap="round" stroke="black" y2="145.302" x1="165.818" y1="157.999" x2="178.506" stroke-width="1.728"/>
  </g>
  <g partID="854175710">
   <line stroke-linecap="round" stroke="black" y2="157.999" x1="115.23" y1="157.999" x2="165.818" stroke-width="1.728"/>
  </g>
  <g partID="854175600">
   <line stroke-linecap="round" stroke="black" y2="157.999" x1="109.679" y1="152.495" x2="115.23" stroke-width="1.728"/>
  </g>
  <g partID="854174570">
   <line stroke-linecap="round" stroke="black" y2="165.56" x1="172.957" y1="165.447" x2="100.954" stroke-width="1.728"/>
  </g>
  <g partID="854174460">
   <line stroke-linecap="round" stroke="black" y2="172.698" x1="180.094" y1="172.585" x2="100.954" stroke-width="1.728"/>
  </g>
  <g partID="854174130">
   <line stroke-linecap="round" stroke="black" y2="152.511" x1="100.954" y1="165.56" x2="88.0635" stroke-width="1.728"/>
  </g>
  <g partID="854174020">
   <line stroke-linecap="round" stroke="black" y2="152.505" x1="100.954" y1="172.698" x2="80.8689" stroke-width="1.728"/>
  </g>
  <g partID="854173040">
   <line stroke-linecap="round" stroke="black" y2="172.585" x1="207.307" y1="145.304" x2="180.095" stroke-width="1.728"/>
  </g>
  <g partID="854172490">
   <line stroke-linecap="round" stroke="black" y2="165.447" x1="192.912" y1="145.309" x2="172.956" stroke-width="1.728"/>
  </g>
  <g partID="854166810">
   <line stroke-linecap="round" stroke="black" y2="143.722" x1="93.7425" y1="147.878" x2="93.8159" stroke-width="3.456"/>
  </g>
  <g partID="854189690">
   <line stroke-linecap="round" stroke="black" y2="143.722" x1="72.0911" y1="136.584" x2="79.2293" stroke-width="1.728"/>
  </g>
  <g partID="854189540">
   <line stroke-linecap="round" stroke="black" y2="148.678" x1="79.2293" y1="143.723" x2="79.2703" stroke-width="1.728"/>
  </g>
  <g partID="854189390">
   <line stroke-linecap="round" stroke="black" y2="136.584" x1="65.5471" y1="136.537" x2="72.0911" stroke-width="1.728"/>
  </g>
  <g partID="854179690">
   <line stroke-linecap="round" stroke="black" y2="141.577" x1="144.094" y1="136.584" x2="149.13" stroke-width="3.456"/>
  </g>
  <g partID="854179560">
   <line stroke-linecap="round" stroke="black" y2="136.584" x1="108.092" y1="136.584" x2="144.093" stroke-width="3.456"/>
  </g>
  <g partID="854179430">
   <line stroke-linecap="round" stroke="black" y2="143.722" x1="100.916" y1="147.878" x2="100.954" stroke-width="3.456"/>
  </g>
  <g partID="854179420">
   <line stroke-linecap="round" stroke="black" y2="136.584" x1="100.954" y1="143.723" x2="108.093" stroke-width="3.456"/>
  </g>
  <g partID="854176070">
   <line stroke-linecap="round" stroke="black" y2="145.282" x1="158.37" y1="150.86" x2="164.086" stroke-width="1.728"/>
  </g>
  <g partID="854175820">
   <line stroke-linecap="round" stroke="black" y2="150.86" x1="117.529" y1="150.915" x2="158.37" stroke-width="1.728"/>
  </g>
 </g>
</svg>
