<?xml version='1.0' encoding='UTF-8' standalone='no'?>
<!-- Created with Fritzing (http://www.fritzing.org/) -->
<svg xmlns="http://www.w3.org/2000/svg" baseProfile="tiny" xmlns:svg="http://www.w3.org/2000/svg" width="3.93701in" x="0in"  version="1.2" y="0in" viewBox="0 0 283.465 226.772" height="3.14961in">
 <g transform="matrix(-1, 0, 0, 1, 283.465, 0)">
  <g partID="57660">
   <g id="board" >
    <rect id="boardoutline" stroke="black" width="282.889" x="0.288" fill-opacity="0.5"  fill="none" y="0.288" stroke-width="0.5" height="226.196"/>
   </g>
  </g>
  <g partID="854200831">
   <g transform="translate(266.419,208.561)">
    <g id="copper1" >
     <circle cx="7.26926" id="nonconn0" stroke="black" r="4.96063"  fill="black" stroke-width="2.13732" cy="7.26926"/>
    </g>
   </g>
  </g>
  <g partID="854200811">
   <g transform="translate(266.419,-0.238771)">
    <g id="copper1" >
     <circle cx="7.26926" id="nonconn0" stroke="black" r="4.96063"  fill="black" stroke-width="2.13732" cy="7.26926"/>
    </g>
   </g>
  </g>
  <g partID="87291">
   <g transform="translate(270.373,99.6305)">
    <g transform="matrix(-1,0,0,-1,0,0)">
     <g id="copper1">
      <g id="copper0">
       <g transform="matrix(1, 0, 0, 1, 0.2835, 0)">
        <g class="centered">
         <g class="pads">
          <g transform="matrix(1, 0, 0, 1, 0, 17)">
           <g class="pads-left">
            <circle cx="3.6" id="connector0pad" class="pad-rst" stroke="black" r="2.05" fill="black" stroke-width="2.22" cy="3.6"/>
            <circle cx="3.6" id="connector1pad" class="pad-a0" stroke="black" r="2.05" fill="black" stroke-width="2.22" cy="10.8"/>
            <circle cx="3.6" id="connector2pad" class="pad-d0" stroke="black" r="2.05" fill="black" stroke-width="2.22" cy="18"/>
            <circle cx="3.6" id="connector3pad" class="pad-d5" stroke="black" r="2.05" fill="black" stroke-width="2.22" cy="25.2"/>
            <circle cx="3.6" id="connector4pad" class="pad-d6" stroke="black" r="2.05" fill="black" stroke-width="2.22" cy="32.4"/>
            <circle cx="3.6" id="connector5pad" class="pad-d7" stroke="black" r="2.05" fill="black" stroke-width="2.22" cy="39.6"/>
            <circle cx="3.6" id="connector6pad" class="pad-d8" stroke="black" r="2.05" fill="black" stroke-width="2.22" cy="46.7999"/>
            <circle cx="3.6" id="connector7pad" class="pad-3v3" stroke="black" r="2.05" fill="black" stroke-width="2.22" cy="53.9999"/>
           </g>
          </g>
          <g transform="matrix(1, 0, 0, 1, 64.7999, 17)">
           <g class="pads-right">
            <circle cx="3.6" id="connector8pad" class="pad-5v" stroke="black" r="2.05" fill="black" stroke-width="2.22" cy="53.9999"/>
            <circle cx="3.6" id="connector9pad" class="pad-g" stroke="black" r="2.05" fill="black" stroke-width="2.22" cy="46.7999"/>
            <circle cx="3.6" id="connector10pad" class="pad-d4" stroke="black" r="2.05" fill="black" stroke-width="2.22" cy="39.6"/>
            <circle cx="3.6" id="connector11pad" class="pad-d3" stroke="black" r="2.05" fill="black" stroke-width="2.22" cy="32.4"/>
            <circle cx="3.6" id="connector12pad" class="pad-d2" stroke="black" r="2.05" fill="black" stroke-width="2.22" cy="25.2"/>
            <circle cx="3.6" id="connector13pad" class="pad-d1" stroke="black" r="2.05" fill="black" stroke-width="2.22" cy="18"/>
            <circle cx="3.6" id="connector14pad" class="pad-rx" stroke="black" r="2.05" fill="black" stroke-width="2.22" cy="10.8"/>
            <circle cx="3.6" id="connector15pad" class="pad-tx" stroke="black" r="2.05" fill="black" stroke-width="2.22" cy="3.6"/>
           </g>
          </g>
         </g>
        </g>
       </g>
      </g>
     </g>
    </g>
   </g>
  </g>
  <g partID="854200851">
   <g transform="translate(0.0195184,208.561)">
    <g id="copper1" >
     <circle cx="7.26926" id="nonconn0" stroke="black" r="4.96063"  fill="black" stroke-width="2.13732" cy="7.26926"/>
    </g>
   </g>
  </g>
  <g partID="119501">
   <g transform="translate(169.793,74.5305)">
    <g transform="matrix(0,-1,1,0,0,0)">
     <g id="copper1" >
      <!-- <rect width="55" x="10" y="15.5" fill="none" height="55" stroke="rgb(255, 191, 0)" stroke-width="20" />  -->
      <circle cx="2.7" id="connector0pin" stroke="black" r="1.98"  fill="black" stroke-width="2.16" cy="3.096"/>
      <circle cx="31.5" id="connector1pin" stroke="black" r="1.98"  fill="black" stroke-width="2.16" cy="3.096"/>
     </g>
    </g>
   </g>
  </g>
  <g partID="107241">
   <g transform="translate(161.585,18.6177)">
    <g transform="matrix(0,1,-1,0,0,0)">
     <g id="copper1" >
      <!-- <rect width="55" x="10" y="15.5" fill="none" height="55" stroke="rgb(255, 191, 0)" stroke-width="20" />  -->
      <circle cx="2.7" id="connector0pin" stroke="black" r="1.98"  fill="black" stroke-width="2.16" cy="3.096"/>
      <circle cx="31.5" id="connector1pin" stroke="black" r="1.98"  fill="black" stroke-width="2.16" cy="3.096"/>
     </g>
    </g>
   </g>
  </g>
  <g partID="97351">
   <g transform="translate(125.189,31.6137)">
    <g transform="matrix(-1,0,0,-1,0,0)">
     <g id="copper1" >
      <!-- <rect width="55" x="10" y="15.5" fill="none" height="55" stroke="rgb(255, 191, 0)" stroke-width="20" />  -->
      <circle cx="2.7" id="connector0pin" stroke="black" r="1.98"  fill="black" stroke-width="2.16" cy="3.096"/>
      <circle cx="31.5" id="connector1pin" stroke="black" r="1.98"  fill="black" stroke-width="2.16" cy="3.096"/>
     </g>
    </g>
   </g>
  </g>
  <g partID="99691">
   <g transform="translate(69.7174,20.6839)">
    <g transform="matrix(0,-1,1,0,0,0)">
     <g id="copper1" >
      <circle cx="6.45336" id="connector0pad" connectorname="1" stroke="black" r="2.052"  fill="black" stroke-width="1.944" cy="9.57146"/>
      <circle cx="6.45336" id="connector1pad" connectorname="2" stroke="black" r="2.052"  fill="black" stroke-width="1.944" cy="16.7715"/>
      <circle cx="6.45336" id="connector2pad" connectorname="3" stroke="black" r="2.052"  fill="black" stroke-width="1.944" cy="23.9715"/>
      <g id="copper0" >
       <circle cx="6.45336" id="connector0pad" connectorname="1" stroke="black" r="2.052"  fill="black" stroke-width="1.944" cy="9.57146"/>
       <circle cx="6.45336" id="connector1pad" connectorname="2" stroke="black" r="2.052"  fill="black" stroke-width="1.944" cy="16.7715"/>
       <circle cx="6.45336" id="connector2pad" connectorname="3" stroke="black" r="2.052"  fill="black" stroke-width="1.944" cy="23.9715"/>
      </g>
     </g>
    </g>
   </g>
  </g>
  <g partID="121381">
   <g transform="translate(69.2827,123.479)">
    <g transform="matrix(0,1,-1,0,0,0)">
     <g transform="matrix(1, 0, 0, 1, 0, -795.118)">
      <g id="copper1">
       <g>
        <g transform="matrix(1, 0, 0, 1, 0, 795.118)">
         <g id="0.3.1.0">
          <path id="connector2pin" stroke="black" style="opacity:0.98000004;stroke-miterlimit:4;stroke-dasharray:none" stroke-opacity="1" fill="black" stroke-width="3.55465" d="m10.4882,23.3858a3.25984,3.25984,0,1,1,-6.51969,0,3.25984,3.25984,0,1,1,6.51969,0z"/>
         </g>
        </g>
        <g transform="matrix(1, 0, 0, 1, 5.81102, 812.126)">
         <g id="0.3.1.1">
          <path id="path3782-7" stroke="black" style="opacity:0.98000004;stroke-miterlimit:4;stroke-dasharray:none" stroke-opacity="1" fill="black" stroke-width="3.55465" d="m10.4882,23.3858a3.25984,3.25984,0,1,1,-6.51969,0,3.25984,3.25984,0,1,1,6.51969,0z"/>
         </g>
        </g>
        <g transform="matrix(1, 0, 0, 1, 40.252, 812.126)">
         <g id="0.3.1.2">
          <path id="path3782-7-5" stroke="black" style="opacity:0.98000004;stroke-miterlimit:4;stroke-dasharray:none" stroke-opacity="1" fill="black" stroke-width="3.55465" d="m10.4882,23.3858a3.25984,3.25984,0,1,1,-6.51969,0,3.25984,3.25984,0,1,1,6.51969,0z"/>
         </g>
        </g>
        <g transform="matrix(1, 0, 0, 1, 5.81102, 812.126)">
         <g id="0.3.1.3">
          <path id="connector1pin" stroke="black" style="opacity:0.98000004;stroke-miterlimit:4;stroke-dasharray:none" stroke-opacity="1" fill="black" stroke-width="3.55465" d="m10.4882,23.3858a3.25984,3.25984,0,1,1,-6.51969,0,3.25984,3.25984,0,1,1,6.51969,0z"/>
         </g>
        </g>
        <g transform="matrix(1, 0, 0, 1, 40.252, 812.126)">
         <g id="0.3.1.4">
          <path id="connector0pin" stroke="black" style="opacity:0.98000004;stroke-miterlimit:4;stroke-dasharray:none" stroke-opacity="1" fill="black" stroke-width="3.55465" d="m10.4882,23.3858a3.25984,3.25984,0,1,1,-6.51969,0,3.25984,3.25984,0,1,1,6.51969,0z"/>
         </g>
        </g>
        <g transform="matrix(1, 0, 0, -1, 5.81102, 824.882)">
         <g id="0.3.1.5">
          <path id="connector4pin" stroke="black" style="opacity:0.98000004;stroke-miterlimit:4;stroke-dasharray:none" stroke-opacity="1" fill="black" stroke-width="3.55465" d="m10.4882,23.3858a3.25984,3.25984,0,1,1,-6.51969,0,3.25984,3.25984,0,1,1,6.51969,0z"/>
         </g>
        </g>
        <g transform="matrix(1, 0, 0, -1, 40.252, 824.882)">
         <g id="0.3.1.6">
          <path id="connector5pin" stroke="black" style="opacity:0.98000004;stroke-miterlimit:4;stroke-dasharray:none" stroke-opacity="1" fill="black" stroke-width="3.55465" d="m10.4882,23.3858a3.25984,3.25984,0,1,1,-6.51969,0,3.25984,3.25984,0,1,1,6.51969,0z"/>
         </g>
        </g>
       </g>
      </g>
     </g>
    </g>
   </g>
  </g>
  <g partID="71921">
   <g transform="translate(20.9689,32.9505)">
    <g transform="matrix(0,-1,1,0,0,0)">
     <g id="copper1" >
      <g id="connector0pin" >
       <rect id="square" stroke="black" width="4.319" x="2.16"  y="5.76" fill="black" stroke-width="2.16" height="4.32"/>
       <circle cx="4.32" stroke="black" r="2.16"  fill="black" stroke-width="2.16" cy="7.92"/>
      </g>
      <circle cx="4.32" id="connector1pin" stroke="black" r="2.16"  fill="black" stroke-width="2.16" cy="22.32"/>
     </g>
    </g>
   </g>
  </g>
  <g partID="76851">
   <g transform="translate(118.889,183.318)">
    <g transform="matrix(-1,0,0,-1,0,0)">
     <g id="copper1"  stroke-width="0">
      <g id="copper0"  stroke-width="0">
       <circle cx="32.4" connectorname="RX2_LV" id="connector1pad" stroke="black" r="1.872"  fill="black" stroke-width="1.584" cy="32.4"/>
       <circle cx="25.2" connectorname="GND" id="connector2pad" stroke="black" r="1.872"  fill="black" stroke-width="1.584" cy="32.4"/>
       <circle cx="18" connectorname="LV" id="connector3pad" stroke="black" r="1.872"  fill="black" stroke-width="1.584" cy="32.4"/>
       <circle cx="10.8" connectorname="RX_LV" id="connector4pad" stroke="black" r="1.872"  fill="black" stroke-width="1.584" cy="32.4"/>
       <circle cx="3.6" connectorname="TX_LV" id="connector5pad" stroke="black" r="1.872"  fill="black" stroke-width="1.584" cy="32.4"/>
       <circle cx="3.6" connectorname="TX_HV" id="connector6pad" stroke="black" r="1.872"  fill="black" stroke-width="1.584" cy="3.6"/>
       <circle cx="10.8" connectorname="RX_HV" id="connector7pad" stroke="black" r="1.872"  fill="black" stroke-width="1.584" cy="3.6"/>
       <circle cx="18" connectorname="HV" id="connector8pad" stroke="black" r="1.872"  fill="black" stroke-width="1.584" cy="3.6"/>
       <circle cx="25.2" connectorname="GND" id="connector9pad" stroke="black" r="1.872"  fill="black" stroke-width="1.584" cy="3.6"/>
       <circle cx="32.4" connectorname="RX2_HV" id="connector10pad" stroke="black" r="1.872"  fill="black" stroke-width="1.584" cy="3.6"/>
       <circle cx="39.6" connectorname="TX2_HV" id="connector11pad" stroke="black" r="1.872"  fill="black" stroke-width="1.584" cy="3.6"/>
       <circle cx="39.6" connectorname="TX2_LV" id="connector0pad" stroke="black" r="1.872"  fill="black" stroke-width="1.584" cy="32.4"/>
      </g>
     </g>
    </g>
   </g>
  </g>
  <g partID="123331">
   <g transform="translate(65.6089,196.998)">
    <g transform="matrix(0,1,-1,0,0,0)">
     <g id="copper1" >
      <circle cx="4.32" id="connector1pin" stroke="black" r="2.16"  fill="black" stroke-width="2.16" cy="22.32"/>
      <circle cx="4.32" id="connector2pin" stroke="black" r="2.16"  fill="black" stroke-width="2.16" cy="36.72"/>
      <g id="connector0pin" >
       <rect id="square" stroke="black" width="4.32" x="2.16"  y="5.76" fill="black" stroke-width="2.16" height="4.32"/>
       <circle cx="4.32" stroke="black" r="2.16"  fill="black" stroke-width="2.16" cy="7.92"/>
      </g>
     </g>
    </g>
   </g>
  </g>
  <g partID="854150781">
   <g transform="translate(130.409,196.998)">
    <g transform="matrix(0,1,-1,0,0,0)">
     <g id="copper1" >
      <circle cx="4.32" id="connector1pin" stroke="black" r="2.16"  fill="black" stroke-width="2.16" cy="22.32"/>
      <circle cx="4.32" id="connector2pin" stroke="black" r="2.16"  fill="black" stroke-width="2.16" cy="36.72"/>
      <circle cx="4.32" id="connector3pin" stroke="black" r="2.16"  fill="black" stroke-width="2.16" cy="51.12"/>
      <g id="connector0pin" >
       <rect id="square" stroke="black" width="4.32" x="2.16"  y="5.76" fill="black" stroke-width="2.16" height="4.32"/>
       <circle cx="4.32" stroke="black" r="2.16"  fill="black" stroke-width="2.16" cy="7.92"/>
      </g>
     </g>
    </g>
   </g>
  </g>
  <g partID="854113781">
   <g transform="translate(152.876,24.8641)">
    <g transform="matrix(-1,0,0,-1,0,0)">
     <g id="copper1" >
      <circle cx="8.7872" id="connector1pad" stroke="black" r="1.7008"  fill="black" stroke-width="1.85384" cy="10.6336"/>
      <rect stroke="black" width="3.4016" x="7.0864"  y="8.9328" fill="black" stroke-width="1.85384" height="3.4016"/>
      <circle cx="8.7872" id="connector0pad" stroke="black" r="1.7008"  fill="black" stroke-width="1.85384" cy="3.5464"/>
     </g>
    </g>
   </g>
  </g>
  <g partID="854113801">
   <g transform="translate(138.476,24.8641)">
    <g transform="matrix(-1,0,0,-1,0,0)">
     <g id="copper1" >
      <circle cx="8.7872" id="connector1pad" stroke="black" r="1.7008"  fill="black" stroke-width="1.85384" cy="10.6336"/>
      <rect stroke="black" width="3.4016" x="7.0864"  y="8.9328" fill="black" stroke-width="1.85384" height="3.4016"/>
      <circle cx="8.7872" id="connector0pad" stroke="black" r="1.7008"  fill="black" stroke-width="1.85384" cy="3.5464"/>
     </g>
    </g>
   </g>
  </g>
  <g partID="854162941">
   <g transform="translate(169.109,32.4105)">
    <g transform="matrix(0,-1,1,0,0,0)">
     <g id="copper1" >
      <circle cx="3.78" id="connector0pad" connectorname="P$1" stroke="black" r="1.77732"  fill="black" stroke-width="1.44" cy="3.78"/>
      <path stroke="black"  fill="black" stroke-width="0.72" d="m1.64268,1.64268,4.27465,0,0,4.27465,-4.27465,0,0,-4.27465zM2.36268,3.78a1.41732,1.41732,0,1,0,2.83465,0,1.41732,1.41732,0,1,0,-2.83465,0z"/>
      <circle cx="25.38" id="connector1pad" connectorname="P$2" stroke="black" r="1.77732"  fill="black" stroke-width="1.44" cy="3.78"/>
      <path stroke="black"  fill="black" stroke-width="0.72" d="m23.2427,1.64268,4.27465,0,0,4.27465,-4.27465,0,0,-4.27465zM23.9627,3.78a1.41732,1.41732,0,1,0,2.83465,0,1.41732,1.41732,0,1,0,-2.83465,0z"/>
      <circle cx="3.78" id="connector2pad" connectorname="P$3" stroke="black" r="1.77732"  fill="black" stroke-width="1.44" cy="18.18"/>
      <path stroke="black"  fill="black" stroke-width="0.72" d="m1.64268,16.0427,4.27465,0,0,4.27465,-4.27465,0,0,-4.27465zM2.36268,18.18a1.41732,1.41732,0,1,0,2.83465,0,1.41732,1.41732,0,1,0,-2.83465,0z"/>
      <circle cx="25.38" id="connector3pad" connectorname="P$4" stroke="black" r="1.77732"  fill="black" stroke-width="1.44" cy="18.18"/>
      <path stroke="black"  fill="black" stroke-width="0.72" d="m23.2427,16.0427,4.27465,0,0,4.27465,-4.27465,0,0,-4.27465zM23.9627,18.18a1.41732,1.41732,0,1,0,2.83465,0,1.41732,1.41732,0,1,0,-2.83465,0z"/>
      <g id="copper0" >
       <circle cx="3.78" id="connector0pad" connectorname="P$1" stroke="black" r="1.77732"  fill="black" stroke-width="1.44" cy="3.78"/>
       <path stroke="black"  fill="black" stroke-width="0.72" d="m1.64268,1.64268,4.27465,0,0,4.27465,-4.27465,0,0,-4.27465zM2.36268,3.78a1.41732,1.41732,0,1,0,2.83465,0,1.41732,1.41732,0,1,0,-2.83465,0z"/>
       <circle cx="25.38" id="connector1pad" connectorname="P$2" stroke="black" r="1.77732"  fill="black" stroke-width="1.44" cy="3.78"/>
       <path stroke="black"  fill="black" stroke-width="0.72" d="m23.2427,1.64268,4.27465,0,0,4.27465,-4.27465,0,0,-4.27465zM23.9627,3.78a1.41732,1.41732,0,1,0,2.83465,0,1.41732,1.41732,0,1,0,-2.83465,0z"/>
       <circle cx="3.78" id="connector2pad" connectorname="P$3" stroke="black" r="1.77732"  fill="black" stroke-width="1.44" cy="18.18"/>
       <path stroke="black"  fill="black" stroke-width="0.72" d="m1.64268,16.0427,4.27465,0,0,4.27465,-4.27465,0,0,-4.27465zM2.36268,18.18a1.41732,1.41732,0,1,0,2.83465,0,1.41732,1.41732,0,1,0,-2.83465,0z"/>
       <circle cx="25.38" id="connector3pad" connectorname="P$4" stroke="black" r="1.77732"  fill="black" stroke-width="1.44" cy="18.18"/>
       <path stroke="black"  fill="black" stroke-width="0.72" d="m23.2427,16.0427,4.27465,0,0,4.27465,-4.27465,0,0,-4.27465zM23.9627,18.18a1.41732,1.41732,0,1,0,2.83465,0,1.41732,1.41732,0,1,0,-2.83465,0z"/>
      </g>
     </g>
    </g>
   </g>
  </g>
  <g partID="854153911">
   <g transform="translate(260.008,139.397)">
    <g transform="matrix(0,1,-1,0,0,0)">
     <g id="copper1" >
      <g id="connector0pin" >
       <rect id="square" stroke="black" width="4.32" x="2.16"  y="5.76" fill="black" stroke-width="2.16" height="4.32"/>
       <circle cx="4.32" stroke="black" r="2.16"  fill="black" stroke-width="2.16" cy="7.92"/>
      </g>
      <circle cx="4.32" id="connector2pin" stroke="black" r="2.16"  fill="black" stroke-width="2.16" cy="36.72"/>
      <circle cx="4.32" id="connector1pin" stroke="black" r="2.16"  fill="black" stroke-width="2.16" cy="22.32"/>
      <circle cx="4.32" id="connector3pin" stroke="black" r="2.16"  fill="black" stroke-width="2.16" cy="51.12"/>
      <circle cx="4.32" id="connector4pin" stroke="black" r="2.16"  fill="black" stroke-width="2.16" cy="65.52"/>
      <circle cx="4.32" id="connector5pin" stroke="black" r="2.16"  fill="black" stroke-width="2.16" cy="79.92"/>
      <circle cx="4.32" id="connector6pin" stroke="black" r="2.16"  fill="black" stroke-width="2.16" cy="94.32"/>
      <circle cx="4.32" id="connector7pin" stroke="black" r="2.16"  fill="black" stroke-width="2.16" cy="108.72"/>
     </g>
    </g>
   </g>
  </g>
  <g partID="854176041">
   <g transform="translate(252.808,196.997)">
    <g transform="matrix(0,1,-1,0,0,0)">
     <g id="copper1" >
      <g id="connector0pin" >
       <rect id="square" stroke="black" width="4.32" x="2.16"  y="5.76" fill="black" stroke-width="2.16" height="4.32"/>
       <circle cx="4.32" stroke="black" r="2.16"  fill="black" stroke-width="2.16" cy="7.92"/>
      </g>
      <circle cx="4.32" id="connector2pin" stroke="black" r="2.16"  fill="black" stroke-width="2.16" cy="36.72"/>
      <circle cx="4.32" id="connector1pin" stroke="black" r="2.16"  fill="black" stroke-width="2.16" cy="22.32"/>
      <circle cx="4.32" id="connector3pin" stroke="black" r="2.16"  fill="black" stroke-width="2.16" cy="51.12"/>
      <circle cx="4.32" id="connector4pin" stroke="black" r="2.16"  fill="black" stroke-width="2.16" cy="65.52"/>
      <circle cx="4.32" id="connector5pin" stroke="black" r="2.16"  fill="black" stroke-width="2.16" cy="79.92"/>
      <circle cx="4.32" id="connector6pin" stroke="black" r="2.16"  fill="black" stroke-width="2.16" cy="94.32"/>
      <circle cx="4.32" id="connector7pin" stroke="black" r="2.16"  fill="black" stroke-width="2.16" cy="108.72"/>
     </g>
    </g>
   </g>
  </g>
  <g partID="854200321">
   <g transform="translate(0.0195127,-0.238777)">
    <g id="copper1" >
     <circle cx="7.26926" id="nonconn0" stroke="black" r="4.96063"  fill="black" stroke-width="2.13732" cy="7.26926"/>
    </g>
   </g>
  </g>
 </g>
</svg>
