<?xml version='1.0' encoding='UTF-8' standalone='no'?>
<!-- Created with Fritzing (http://www.fritzing.org/) -->
<svg xmlns="http://www.w3.org/2000/svg" baseProfile="tiny"  viewBox="0 0 283.465 226.772" y="0in" height="3.14961in" width="3.93701in" x="0in" xmlns:svg="http://www.w3.org/2000/svg" version="1.2">
 <g partID="57660">
  <g  id="board">
   <rect fill="none" fill-opacity="0.5"  id="boardoutline" stroke="black" height="226.196" y="0.288" width="282.889" stroke-width="0.5" x="0.288"/>
  </g>
 </g>
 <g partID="87290">
  <g transform="translate(270.372,99.6305)">
   <g transform="matrix(-1,0,0,-1,0,0)">
    <g id="copper0">
     <g transform="matrix(1, 0, 0, 1, 0.2835, 0)">
      <g class="centered">
       <g class="pads">
        <g transform="matrix(1, 0, 0, 1, 0, 17)">
         <g class="pads-left">
          <circle fill="black" cy="3.6" r="2.05" id="connector0pad" stroke="black" class="pad-rst" stroke-width="2.22" cx="3.6"/>
          <circle fill="black" cy="10.8" r="2.05" id="connector1pad" stroke="black" class="pad-a0" stroke-width="2.22" cx="3.6"/>
          <circle fill="black" cy="18" r="2.05" id="connector2pad" stroke="black" class="pad-d0" stroke-width="2.22" cx="3.6"/>
          <circle fill="black" cy="25.2" r="2.05" id="connector3pad" stroke="black" class="pad-d5" stroke-width="2.22" cx="3.6"/>
          <circle fill="black" cy="32.4" r="2.05" id="connector4pad" stroke="black" class="pad-d6" stroke-width="2.22" cx="3.6"/>
          <circle fill="black" cy="39.6" r="2.05" id="connector5pad" stroke="black" class="pad-d7" stroke-width="2.22" cx="3.6"/>
          <circle fill="black" cy="46.7999" r="2.05" id="connector6pad" stroke="black" class="pad-d8" stroke-width="2.22" cx="3.6"/>
          <circle fill="black" cy="53.9999" r="2.05" id="connector7pad" stroke="black" class="pad-3v3" stroke-width="2.22" cx="3.6"/>
         </g>
        </g>
        <g transform="matrix(1, 0, 0, 1, 64.7999, 17)">
         <g class="pads-right">
          <circle fill="black" cy="53.9999" r="2.05" id="connector8pad" stroke="black" class="pad-5v" stroke-width="2.22" cx="3.6"/>
          <circle fill="black" cy="46.7999" r="2.05" id="connector9pad" stroke="black" class="pad-g" stroke-width="2.22" cx="3.6"/>
          <circle fill="black" cy="39.6" r="2.05" id="connector10pad" stroke="black" class="pad-d4" stroke-width="2.22" cx="3.6"/>
          <circle fill="black" cy="32.4" r="2.05" id="connector11pad" stroke="black" class="pad-d3" stroke-width="2.22" cx="3.6"/>
          <circle fill="black" cy="25.2" r="2.05" id="connector12pad" stroke="black" class="pad-d2" stroke-width="2.22" cx="3.6"/>
          <circle fill="black" cy="18" r="2.05" id="connector13pad" stroke="black" class="pad-d1" stroke-width="2.22" cx="3.6"/>
          <circle fill="black" cy="10.8" r="2.05" id="connector14pad" stroke="black" class="pad-rx" stroke-width="2.22" cx="3.6"/>
          <circle fill="black" cy="3.6" r="2.05" id="connector15pad" stroke="black" class="pad-tx" stroke-width="2.22" cx="3.6"/>
         </g>
        </g>
       </g>
      </g>
     </g>
    </g>
   </g>
  </g>
 </g>
 <g partID="119500">
  <g transform="translate(169.793,74.5305)">
   <g transform="matrix(0,-1,1,0,0,0)">
    <g  id="copper0">
     <g  id="copper1">
      <!-- <rect width="55" x="10" y="15.5" fill="none" height="55" stroke="rgb(255, 191, 0)" stroke-width="20" />  -->
      <circle fill="black"  cy="3.096" r="1.98" stroke="black" id="connector0pin" stroke-width="2.16" cx="2.7"/>
      <circle fill="black"  cy="3.096" r="1.98" stroke="black" id="connector1pin" stroke-width="2.16" cx="31.5"/>
     </g>
    </g>
   </g>
  </g>
 </g>
 <g partID="107240">
  <g transform="translate(161.585,18.6177)">
   <g transform="matrix(0,1,-1,0,0,0)">
    <g  id="copper0">
     <g  id="copper1">
      <!-- <rect width="55" x="10" y="15.5" fill="none" height="55" stroke="rgb(255, 191, 0)" stroke-width="20" />  -->
      <circle fill="black"  cy="3.096" r="1.98" stroke="black" id="connector0pin" stroke-width="2.16" cx="2.7"/>
      <circle fill="black"  cy="3.096" r="1.98" stroke="black" id="connector1pin" stroke-width="2.16" cx="31.5"/>
     </g>
    </g>
   </g>
  </g>
 </g>
 <g partID="97350">
  <g transform="translate(125.189,31.6137)">
   <g transform="matrix(-1,0,0,-1,0,0)">
    <g  id="copper0">
     <g  id="copper1">
      <!-- <rect width="55" x="10" y="15.5" fill="none" height="55" stroke="rgb(255, 191, 0)" stroke-width="20" />  -->
      <circle fill="black"  cy="3.096" r="1.98" stroke="black" id="connector0pin" stroke-width="2.16" cx="2.7"/>
      <circle fill="black"  cy="3.096" r="1.98" stroke="black" id="connector1pin" stroke-width="2.16" cx="31.5"/>
     </g>
    </g>
   </g>
  </g>
 </g>
 <g partID="99690">
  <g transform="translate(69.7174,20.6839)">
   <g transform="matrix(0,-1,1,0,0,0)">
    <g  id="copper0">
     <circle fill="black"  cy="9.57146" r="2.052" id="connector0pad" stroke="black" connectorname="1" stroke-width="1.944" cx="6.45336"/>
     <circle fill="black"  cy="16.7715" r="2.052" id="connector1pad" stroke="black" connectorname="2" stroke-width="1.944" cx="6.45336"/>
     <circle fill="black"  cy="23.9715" r="2.052" id="connector2pad" stroke="black" connectorname="3" stroke-width="1.944" cx="6.45336"/>
    </g>
   </g>
  </g>
 </g>
 <g partID="121380">
  <g transform="translate(69.2826,123.478)">
   <g transform="matrix(0,1,-1,0,0,0)">
    <g transform="matrix(1, 0, 0, 1, 0, -795.118)">
     <g id="copper0">
      <g>
       <g id="copper1">
        <g transform="matrix(1, 0, 0, 1, 0, 795.118)">
         <g id="0.3.1.0">
          <path fill="black" stroke-opacity="1" stroke="black" id="connector2pin" d="m10.4882,23.3858a3.25984,3.25984,0,1,1,-6.51969,0,3.25984,3.25984,0,1,1,6.51969,0z" stroke-width="3.55465" style="opacity:0.98000004;stroke-miterlimit:4;stroke-dasharray:none"/>
         </g>
        </g>
        <g transform="matrix(1, 0, 0, 1, 5.81102, 812.126)">
         <g id="0.3.1.1">
          <path fill="black" stroke-opacity="1" stroke="black" id="path3782-7" d="m10.4882,23.3858a3.25984,3.25984,0,1,1,-6.51969,0,3.25984,3.25984,0,1,1,6.51969,0z" stroke-width="3.55465" style="opacity:0.98000004;stroke-miterlimit:4;stroke-dasharray:none"/>
         </g>
        </g>
        <g transform="matrix(1, 0, 0, 1, 40.252, 812.126)">
         <g id="0.3.1.2">
          <path fill="black" stroke-opacity="1" stroke="black" id="path3782-7-5" d="m10.4882,23.3858a3.25984,3.25984,0,1,1,-6.51969,0,3.25984,3.25984,0,1,1,6.51969,0z" stroke-width="3.55465" style="opacity:0.98000004;stroke-miterlimit:4;stroke-dasharray:none"/>
         </g>
        </g>
        <g transform="matrix(1, 0, 0, 1, 5.81102, 812.126)">
         <g id="0.3.1.3">
          <path fill="black" stroke-opacity="1" stroke="black" id="connector1pin" d="m10.4882,23.3858a3.25984,3.25984,0,1,1,-6.51969,0,3.25984,3.25984,0,1,1,6.51969,0z" stroke-width="3.55465" style="opacity:0.98000004;stroke-miterlimit:4;stroke-dasharray:none"/>
         </g>
        </g>
        <g transform="matrix(1, 0, 0, 1, 40.252, 812.126)">
         <g id="0.3.1.4">
          <path fill="black" stroke-opacity="1" stroke="black" id="connector0pin" d="m10.4882,23.3858a3.25984,3.25984,0,1,1,-6.51969,0,3.25984,3.25984,0,1,1,6.51969,0z" stroke-width="3.55465" style="opacity:0.98000004;stroke-miterlimit:4;stroke-dasharray:none"/>
         </g>
        </g>
        <g transform="matrix(1, 0, 0, -1, 5.81102, 824.882)">
         <g id="0.3.1.5">
          <path fill="black" stroke-opacity="1" stroke="black" id="connector4pin" d="m10.4882,23.3858a3.25984,3.25984,0,1,1,-6.51969,0,3.25984,3.25984,0,1,1,6.51969,0z" stroke-width="3.55465" style="opacity:0.98000004;stroke-miterlimit:4;stroke-dasharray:none"/>
         </g>
        </g>
        <g transform="matrix(1, 0, 0, -1, 40.252, 824.882)">
         <g id="0.3.1.6">
          <path fill="black" stroke-opacity="1" stroke="black" id="connector5pin" d="m10.4882,23.3858a3.25984,3.25984,0,1,1,-6.51969,0,3.25984,3.25984,0,1,1,6.51969,0z" stroke-width="3.55465" style="opacity:0.98000004;stroke-miterlimit:4;stroke-dasharray:none"/>
         </g>
        </g>
       </g>
      </g>
     </g>
    </g>
   </g>
  </g>
 </g>
 <g partID="71920">
  <g transform="translate(20.9689,32.9505)">
   <g transform="matrix(0,-1,1,0,0,0)">
    <g  id="copper0">
     <g  id="copper1">
      <g  id="connector0pin">
       <rect fill="black"  id="square" stroke="black" y="5.76" height="4.32" width="4.319" stroke-width="2.16" x="2.16"/>
       <circle fill="black"  cy="7.92" r="2.16" stroke="black" stroke-width="2.16" cx="4.32"/>
      </g>
      <circle fill="black"  cy="22.32" r="2.16" id="connector1pin" stroke="black" stroke-width="2.16" cx="4.32"/>
     </g>
    </g>
   </g>
  </g>
 </g>
 <g partID="76850">
  <g transform="translate(118.889,183.318)">
   <g transform="matrix(-1,0,0,-1,0,0)">
    <g  id="copper0" stroke-width="0">
     <circle fill="black"  cy="32.4" r="1.872" stroke="black" id="connector1pad" connectorname="RX2_LV" stroke-width="1.584" cx="32.4"/>
     <circle fill="black"  cy="32.4" r="1.872" stroke="black" id="connector2pad" connectorname="GND" stroke-width="1.584" cx="25.2"/>
     <circle fill="black"  cy="32.4" r="1.872" stroke="black" id="connector3pad" connectorname="LV" stroke-width="1.584" cx="18"/>
     <circle fill="black"  cy="32.4" r="1.872" stroke="black" id="connector4pad" connectorname="RX_LV" stroke-width="1.584" cx="10.8"/>
     <circle fill="black"  cy="32.4" r="1.872" stroke="black" id="connector5pad" connectorname="TX_LV" stroke-width="1.584" cx="3.6"/>
     <circle fill="black"  cy="3.6" r="1.872" stroke="black" id="connector6pad" connectorname="TX_HV" stroke-width="1.584" cx="3.6"/>
     <circle fill="black"  cy="3.6" r="1.872" stroke="black" id="connector7pad" connectorname="RX_HV" stroke-width="1.584" cx="10.8"/>
     <circle fill="black"  cy="3.6" r="1.872" stroke="black" id="connector8pad" connectorname="HV" stroke-width="1.584" cx="18"/>
     <circle fill="black"  cy="3.6" r="1.872" stroke="black" id="connector9pad" connectorname="GND" stroke-width="1.584" cx="25.2"/>
     <circle fill="black"  cy="3.6" r="1.872" stroke="black" id="connector10pad" connectorname="RX2_HV" stroke-width="1.584" cx="32.4"/>
     <circle fill="black"  cy="3.6" r="1.872" stroke="black" id="connector11pad" connectorname="TX2_HV" stroke-width="1.584" cx="39.6"/>
     <circle fill="black"  cy="32.4" r="1.872" stroke="black" id="connector0pad" connectorname="TX2_LV" stroke-width="1.584" cx="39.6"/>
    </g>
   </g>
  </g>
 </g>
 <g partID="123330">
  <g transform="translate(65.6089,196.998)">
   <g transform="matrix(0,1,-1,0,0,0)">
    <g  id="copper0">
     <g  id="copper1">
      <circle fill="black"  cy="22.32" r="2.16" id="connector1pin" stroke="black" stroke-width="2.16" cx="4.32"/>
      <circle fill="black"  cy="36.72" r="2.16" id="connector2pin" stroke="black" stroke-width="2.16" cx="4.32"/>
      <g  id="connector0pin">
       <rect fill="black"  id="square" stroke="black" y="5.76" height="4.32" width="4.32" stroke-width="2.16" x="2.16"/>
       <circle fill="black"  cy="7.92" r="2.16" stroke="black" stroke-width="2.16" cx="4.32"/>
      </g>
     </g>
    </g>
   </g>
  </g>
 </g>
 <g partID="854150780">
  <g transform="translate(130.409,196.998)">
   <g transform="matrix(0,1,-1,0,0,0)">
    <g  id="copper0">
     <g  id="copper1">
      <circle fill="black"  cy="22.32" r="2.16" id="connector1pin" stroke="black" stroke-width="2.16" cx="4.32"/>
      <circle fill="black"  cy="36.72" r="2.16" id="connector2pin" stroke="black" stroke-width="2.16" cx="4.32"/>
      <circle fill="black"  cy="51.12" r="2.16" id="connector3pin" stroke="black" stroke-width="2.16" cx="4.32"/>
      <g  id="connector0pin">
       <rect fill="black"  id="square" stroke="black" y="5.76" height="4.32" width="4.32" stroke-width="2.16" x="2.16"/>
       <circle fill="black"  cy="7.92" r="2.16" stroke="black" stroke-width="2.16" cx="4.32"/>
      </g>
     </g>
    </g>
   </g>
  </g>
 </g>
 <g partID="854113780">
  <g transform="translate(152.876,24.8641)">
   <g transform="matrix(-1,0,0,-1,0,0)">
    <g  id="copper0">
     <g  id="copper1">
      <circle fill="black"  cy="10.6336" r="1.7008" id="connector1pad" stroke="black" stroke-width="1.85384" cx="8.7872"/>
      <rect fill="black"  stroke="black" y="8.9328" height="3.4016" width="3.4016" stroke-width="1.85384" x="7.0864"/>
      <circle fill="black"  cy="3.5464" r="1.7008" id="connector0pad" stroke="black" stroke-width="1.85384" cx="8.7872"/>
     </g>
    </g>
   </g>
  </g>
 </g>
 <g partID="854113800">
  <g transform="translate(138.476,24.8641)">
   <g transform="matrix(-1,0,0,-1,0,0)">
    <g  id="copper0">
     <g  id="copper1">
      <circle fill="black"  cy="10.6336" r="1.7008" id="connector1pad" stroke="black" stroke-width="1.85384" cx="8.7872"/>
      <rect fill="black"  stroke="black" y="8.9328" height="3.4016" width="3.4016" stroke-width="1.85384" x="7.0864"/>
      <circle fill="black"  cy="3.5464" r="1.7008" id="connector0pad" stroke="black" stroke-width="1.85384" cx="8.7872"/>
     </g>
    </g>
   </g>
  </g>
 </g>
 <g partID="854162940">
  <g transform="translate(169.109,32.4105)">
   <g transform="matrix(0,-1,1,0,0,0)">
    <g  id="copper0">
     <circle fill="black"  cy="3.78" r="1.77732" id="connector0pad" stroke="black" connectorname="P$1" stroke-width="1.44" cx="3.78"/>
     <path fill="black"  stroke="black" d="m1.64268,1.64268,4.27465,0,0,4.27465,-4.27465,0,0,-4.27465zM2.36268,3.78a1.41732,1.41732,0,1,0,2.83465,0,1.41732,1.41732,0,1,0,-2.83465,0z" stroke-width="0.72"/>
     <circle fill="black"  cy="3.78" r="1.77732" id="connector1pad" stroke="black" connectorname="P$2" stroke-width="1.44" cx="25.38"/>
     <path fill="black"  stroke="black" d="m23.2427,1.64268,4.27465,0,0,4.27465,-4.27465,0,0,-4.27465zM23.9627,3.78a1.41732,1.41732,0,1,0,2.83465,0,1.41732,1.41732,0,1,0,-2.83465,0z" stroke-width="0.72"/>
     <circle fill="black"  cy="18.18" r="1.77732" id="connector2pad" stroke="black" connectorname="P$3" stroke-width="1.44" cx="3.78"/>
     <path fill="black"  stroke="black" d="m1.64268,16.0427,4.27465,0,0,4.27465,-4.27465,0,0,-4.27465zM2.36268,18.18a1.41732,1.41732,0,1,0,2.83465,0,1.41732,1.41732,0,1,0,-2.83465,0z" stroke-width="0.72"/>
     <circle fill="black"  cy="18.18" r="1.77732" id="connector3pad" stroke="black" connectorname="P$4" stroke-width="1.44" cx="25.38"/>
     <path fill="black"  stroke="black" d="m23.2427,16.0427,4.27465,0,0,4.27465,-4.27465,0,0,-4.27465zM23.9627,18.18a1.41732,1.41732,0,1,0,2.83465,0,1.41732,1.41732,0,1,0,-2.83465,0z" stroke-width="0.72"/>
    </g>
   </g>
  </g>
 </g>
 <g partID="854153910">
  <g transform="translate(260.009,139.398)">
   <g transform="matrix(0,1,-1,0,0,0)">
    <g  id="copper0">
     <g  id="copper1">
      <g  id="connector0pin">
       <rect fill="black"  id="square" stroke="black" y="5.76" height="4.32" width="4.32" stroke-width="2.16" x="2.16"/>
       <circle fill="black"  cy="7.92" r="2.16" stroke="black" stroke-width="2.16" cx="4.32"/>
      </g>
      <circle fill="black"  cy="36.72" r="2.16" id="connector2pin" stroke="black" stroke-width="2.16" cx="4.32"/>
      <circle fill="black"  cy="22.32" r="2.16" id="connector1pin" stroke="black" stroke-width="2.16" cx="4.32"/>
      <circle fill="black"  cy="51.12" r="2.16" id="connector3pin" stroke="black" stroke-width="2.16" cx="4.32"/>
      <circle fill="black"  cy="65.52" r="2.16" id="connector4pin" stroke="black" stroke-width="2.16" cx="4.32"/>
      <circle fill="black"  cy="79.92" r="2.16" id="connector5pin" stroke="black" stroke-width="2.16" cx="4.32"/>
      <circle fill="black"  cy="94.32" r="2.16" id="connector6pin" stroke="black" stroke-width="2.16" cx="4.32"/>
      <circle fill="black"  cy="108.72" r="2.16" id="connector7pin" stroke="black" stroke-width="2.16" cx="4.32"/>
     </g>
    </g>
   </g>
  </g>
 </g>
 <g partID="854176040">
  <g transform="translate(252.809,196.998)">
   <g transform="matrix(0,1,-1,0,0,0)">
    <g  id="copper0">
     <g  id="copper1">
      <g  id="connector0pin">
       <rect fill="black"  id="square" stroke="black" y="5.76" height="4.32" width="4.32" stroke-width="2.16" x="2.16"/>
       <circle fill="black"  cy="7.92" r="2.16" stroke="black" stroke-width="2.16" cx="4.32"/>
      </g>
      <circle fill="black"  cy="36.72" r="2.16" id="connector2pin" stroke="black" stroke-width="2.16" cx="4.32"/>
      <circle fill="black"  cy="22.32" r="2.16" id="connector1pin" stroke="black" stroke-width="2.16" cx="4.32"/>
      <circle fill="black"  cy="51.12" r="2.16" id="connector3pin" stroke="black" stroke-width="2.16" cx="4.32"/>
      <circle fill="black"  cy="65.52" r="2.16" id="connector4pin" stroke="black" stroke-width="2.16" cx="4.32"/>
      <circle fill="black"  cy="79.92" r="2.16" id="connector5pin" stroke="black" stroke-width="2.16" cx="4.32"/>
      <circle fill="black"  cy="94.32" r="2.16" id="connector6pin" stroke="black" stroke-width="2.16" cx="4.32"/>
      <circle fill="black"  cy="108.72" r="2.16" id="connector7pin" stroke="black" stroke-width="2.16" cx="4.32"/>
     </g>
    </g>
   </g>
  </g>
 </g>
 <g partID="854200320">
  <g transform="translate(0.0195127,-0.238777)">
   <g  id="copper0">
    <circle fill="black"  cy="7.26926" r="4.96063" stroke="black" id="nonconn0" stroke-width="2.13732" cx="7.26926"/>
   </g>
  </g>
 </g>
 <g partID="854200830">
  <g transform="translate(266.42,208.561)">
   <g  id="copper0">
    <circle fill="black"  cy="7.26926" r="4.96063" stroke="black" id="nonconn0" stroke-width="2.13732" cx="7.26926"/>
   </g>
  </g>
 </g>
 <g partID="854200850">
  <g transform="translate(0.0195184,208.561)">
   <g  id="copper0">
    <circle fill="black"  cy="7.26926" r="4.96063" stroke="black" id="nonconn0" stroke-width="2.13732" cx="7.26926"/>
   </g>
  </g>
 </g>
 <g partID="854200810">
  <g transform="translate(266.42,-0.238771)">
   <g  id="copper0">
    <circle fill="black"  cy="7.26926" r="4.96063" stroke="black" id="nonconn0" stroke-width="2.13732" cx="7.26926"/>
   </g>
  </g>
 </g>
</svg>
